# Blender 4.2.0
# www.blender.org
mtllib spacelib.mtl
o Cone
v -3.229983 -2.122047 1.573507
v -1.211781 -0.655738 1.573496
v -1.982665 1.716801 1.573479
v -4.477300 1.716801 1.573479
v -5.248184 -0.655738 1.573496
v -3.229983 -0.000016 0.623461
v -3.229983 -2.122046 1.630759
v -5.248184 -0.655737 1.630770
v -4.477300 1.716801 1.630787
v -1.982665 1.716801 1.630787
v -1.211781 -0.655737 1.630769
v -3.229983 -0.000015 0.806810
v 3.229983 -2.122047 1.573507
v 1.211781 -0.655738 1.573496
v 1.982666 1.716801 1.573479
v 4.477301 1.716801 1.573479
v 5.248185 -0.655738 1.573496
v 3.229983 -0.000016 0.623461
v 3.229983 -2.122046 1.630759
v 5.248185 -0.655737 1.630770
v 4.477301 1.716801 1.630787
v 1.982666 1.716801 1.630787
v 1.211781 -0.655737 1.630769
v 3.229983 -0.000015 0.806810
v 1.000000 0.991913 0.590936
v 1.000000 0.991912 -1.409064
v 1.000000 -1.008087 0.590936
v 1.000000 -1.008088 -1.409064
v -1.000000 0.991913 0.590936
v -1.000000 0.991912 -1.409064
v -1.000000 -1.008087 0.590936
v -1.000000 -1.008088 -1.409064
v -0.897672 -5.137622 -0.396847
v 0.897673 -5.137622 -0.396847
v -0.897672 -1.731329 -0.396848
v 0.897673 -1.731329 -0.396848
v -0.897672 -8.612041 -0.396847
v 0.897673 -8.612041 -0.396847
v -0.897672 -5.205749 -0.396847
v 0.897673 -5.205749 -0.396847
v -0.897673 -5.137622 -0.421279
v 0.897673 -5.137622 -0.421279
v -0.897673 -1.731329 -0.421280
v 0.897673 -1.731329 -0.421280
v -0.897673 -8.612041 -0.421279
v 0.897673 -8.612041 -0.421279
v -0.897673 -5.205749 -0.421279
v 0.897673 -5.205749 -0.421279
v -0.897673 5.121447 -0.396849
v 0.897673 5.121447 -0.396849
v -0.897673 1.715154 -0.396848
v 0.897673 1.715154 -0.396848
v -0.897673 8.595866 -0.396849
v 0.897673 8.595866 -0.396849
v -0.897673 5.189573 -0.396849
v 0.897673 5.189573 -0.396849
v -0.897673 5.121447 -0.421281
v 0.897673 5.121447 -0.421281
v -0.897673 1.715154 -0.421280
v 0.897673 1.715154 -0.421280
v -0.897673 8.595866 -0.421281
v 0.897673 8.595866 -0.421281
v -0.897673 5.189573 -0.421281
v 0.897673 5.189573 -0.421281
vn 0.2846 -0.3917 -0.8750
vn 0.4605 0.1496 -0.8750
vn -0.0000 0.4842 -0.8750
vn -0.4605 0.1496 -0.8750
vn -0.2846 -0.3917 -0.8750
vn 0.2543 0.3501 0.9015
vn 0.4115 -0.1337 0.9015
vn -0.0000 -0.4327 0.9015
vn -0.4115 -0.1337 0.9015
vn -0.2543 0.3501 0.9015
vn -0.0000 -0.0000 1.0000
vn -0.0000 -1.0000 -0.0000
vn -1.0000 -0.0000 -0.0000
vn -0.0000 -0.0000 -1.0000
vn 1.0000 -0.0000 -0.0000
vn -0.0000 1.0000 -0.0000
vt 0.250000 0.490000
vt 0.250000 0.250000
vt 0.478254 0.324164
vt 0.391068 0.055836
vt 0.108932 0.055836
vt 0.021746 0.324164
vt 0.000000 0.000000
s 0
usemtl aluminum
f 1/1/1 6/2/1 2/3/1
f 2/3/2 6/2/2 3/4/2
f 3/4/3 6/2/3 4/5/3
f 4/5/4 6/2/4 5/6/4
f 5/6/5 6/2/5 1/1/5
f 7/1/6 12/2/6 8/3/6
f 8/3/7 12/2/7 9/4/7
f 9/4/8 12/2/8 10/5/8
f 10/5/9 12/2/9 11/6/9
f 11/6/10 12/2/10 7/1/10
f 13/1/5 14/3/5 18/2/5
f 14/3/4 15/4/4 18/2/4
f 15/4/3 16/5/3 18/2/3
f 16/5/2 17/6/2 18/2/2
f 17/6/1 13/1/1 18/2/1
f 19/1/10 20/3/10 24/2/10
f 20/3/9 21/4/9 24/2/9
f 21/4/8 22/5/8 24/2/8
f 22/5/7 23/6/7 24/2/7
f 23/6/6 19/1/6 24/2/6
usemtl mli
f 29/7/11 27/7/11 25/7/11
f 27/7/12 32/7/12 28/7/12
f 32/7/13 29/7/13 30/7/13
f 26/7/14 32/7/14 30/7/14
f 25/7/15 28/7/15 26/7/15
f 29/7/16 26/7/16 30/7/16
f 29/7/11 31/7/11 27/7/11
f 27/7/12 31/7/12 32/7/12
f 32/7/13 31/7/13 29/7/13
f 26/7/14 28/7/14 32/7/14
f 25/7/15 27/7/15 28/7/15
f 29/7/16 25/7/16 26/7/16
usemtl starlink_panel
f 34/7/11 35/7/11 33/7/11
f 38/7/11 39/7/11 37/7/11
f 43/7/14 42/7/14 41/7/14
f 47/7/14 46/7/14 45/7/14
f 51/7/11 50/7/11 49/7/11
f 55/7/11 54/7/11 53/7/11
f 58/7/14 59/7/14 57/7/14
f 62/7/14 63/7/14 61/7/14
f 34/7/11 36/7/11 35/7/11
f 38/7/11 40/7/11 39/7/11
f 43/7/14 44/7/14 42/7/14
f 47/7/14 48/7/14 46/7/14
f 51/7/11 52/7/11 50/7/11
f 55/7/11 56/7/11 54/7/11
f 58/7/14 60/7/14 59/7/14
f 62/7/14 64/7/14 63/7/14
