# Blender v2.92.0 OBJ File: ''
# www.blender.org
mtllib box_wing.mtl
o Cube
v 1.000000 1.000000 -1.000000
v 1.000000 1.000000 1.000000
v -1.000000 1.000000 -1.000000
v -1.000000 1.000000 1.000000
v 1.000000 -1.000000 -1.000000
v 1.000000 -1.000000 1.000000
v -1.000000 -1.000000 -1.000000
v -1.000000 -1.000000 1.000000
v -1.000000 -1.000000 0.000000
v -1.000000 1.000000 0.000000
v -1.000000 0.000000 -1.000000
v -1.000000 0.000000 1.000000
v -1.000000 0.000000 0.000000
v 1.000000 0.000000 1.000000
v 1.000000 1.000000 0.000000
v 1.000000 -1.000000 0.000000
v 1.000000 0.000000 -1.000000
v 1.000000 0.000000 0.000000
v -1.000000 -1.000000 -0.500000
v -1.000000 -0.500000 -1.000000
v -1.000000 1.000000 -0.500000
v -1.000000 0.500000 -1.000000
v -1.000000 -0.500000 0.000000
v -1.000000 0.500000 0.000000
v -1.000000 0.000000 -0.500000
v -1.000000 0.500000 -0.500000
v -1.000000 -0.500000 -0.500000
v -6.222051 -1.000000 -0.500000
v -6.222051 -1.000000 -1.000000
v -6.222051 -0.500000 -1.000000
v -6.222051 0.500000 -1.000000
v -6.222051 0.000000 -1.000000
v -6.222051 1.000000 -1.000000
v -6.222051 1.000000 -0.500000
v -6.222051 0.500000 -0.500000
v -6.222051 0.000000 -0.500000
v -6.222051 -0.500000 -0.500000
vt 0.750000 0.750000
vt 0.687500 0.750000
vt 0.750000 0.500000
vt 0.562500 0.000000
vt 0.625000 0.250000
vt 0.500000 0.250000
vt 0.250000 0.500000
vt 0.375000 0.750000
vt 0.250000 0.750000
vt 0.500000 0.750000
vt 0.500000 0.500000
vt 0.625000 0.375000
vt 0.500000 0.375000
vt 0.500000 0.937500
vt 0.500000 1.000000
vt 0.375000 1.000000
vt 0.500000 0.812500
vt 0.500000 0.875000
vt 0.375000 0.875000
vt 0.375000 0.500000
vt 0.375000 0.375000
vt 0.375000 0.250000
vt 0.562500 0.812500
vt 0.562500 0.750000
vt 0.562500 0.937500
vt 0.562500 0.875000
vt 0.562500 1.000000
vt 0.562500 1.000000
vt 0.625000 0.812500
vt 0.625000 0.875000
vt 0.562500 0.875000
vt 0.625000 0.000000
vt 0.625000 0.000000
vt 0.687500 0.750000
vt 0.625000 0.750000
vt 0.625000 0.750000
vt 0.562500 0.937500
vt 0.562500 0.812500
vt 0.812500 0.750000
vt 0.750000 0.750000
vt 0.875000 0.750000
vt 0.812500 0.750000
vt 0.562500 0.750000
vt 0.625000 0.500000
vt 0.875000 0.500000
vt 0.375000 0.000000
vt 0.500000 0.000000
vt 0.125000 0.750000
vt 0.125000 0.500000
vt 0.625000 0.937500
vt 0.625000 1.000000
vt 0.562500 0.000000
vt 0.875000 0.750000
vn 0.0000 0.0000 -1.0000
vn 0.0000 -1.0000 0.0000
vn 0.0000 0.0000 1.0000
vn 0.0000 1.0000 0.0000
vn 1.0000 0.0000 0.0000
vn -1.0000 0.0000 0.0000
usemtl Material
s off
f 11/1/1 22/2/1 17/3/1
f 19/4/2 5/5/2 16/6/2
f 14/7/3 4/8/3 12/9/3
f 10/10/4 4/8/4 15/11/4
f 17/12/5 15/11/5 18/13/5
f 23/14/6 9/15/6 8/16/6
f 24/17/6 13/18/6 12/19/6
f 18/13/5 2/20/5 14/21/5
f 16/6/5 14/21/5 6/22/5
f 5/5/5 18/13/5 16/6/5
f 26/23/6 13/18/6 24/17/6
f 21/24/6 24/17/6 10/10/6
f 27/25/6 9/15/6 23/14/6
f 25/26/6 23/14/6 13/18/6
f 27/25/3 28/27/3 19/28/3
f 31/29/6 32/30/6 36/31/6
f 19/4/2 29/32/2 7/33/2
f 26/23/3 36/31/3 25/26/3
f 11/1/1 31/34/1 22/2/1
f 22/2/1 33/35/1 3/36/1
f 25/26/3 37/37/3 27/25/3
f 21/24/3 35/38/3 26/23/3
f 20/39/1 32/40/1 11/1/1
f 7/41/1 30/42/1 20/39/1
f 3/36/4 34/43/4 21/24/4
f 3/36/1 1/44/1 22/2/1
f 1/44/1 17/3/1 22/2/1
f 17/3/1 5/45/1 20/39/1
f 5/45/1 7/41/1 20/39/1
f 20/39/1 11/1/1 17/3/1
f 6/22/2 8/46/2 9/47/2
f 19/4/2 7/33/2 5/5/2
f 6/22/2 9/47/2 16/6/2
f 9/47/2 19/4/2 16/6/2
f 8/48/3 6/49/3 14/7/3
f 14/7/3 2/20/3 4/8/3
f 12/9/3 8/48/3 14/7/3
f 4/8/4 2/20/4 15/11/4
f 15/11/4 1/44/4 21/24/4
f 1/44/4 3/36/4 21/24/4
f 21/24/4 10/10/4 15/11/4
f 17/12/5 1/44/5 15/11/5
f 8/16/6 12/19/6 23/14/6
f 12/19/6 13/18/6 23/14/6
f 12/19/6 4/8/6 24/17/6
f 4/8/6 10/10/6 24/17/6
f 18/13/5 15/11/5 2/20/5
f 16/6/5 18/13/5 14/21/5
f 5/5/5 17/12/5 18/13/5
f 26/23/6 25/26/6 13/18/6
f 21/24/6 26/23/6 24/17/6
f 27/25/6 19/28/6 9/15/6
f 25/26/6 27/25/6 23/14/6
f 27/25/3 37/37/3 28/27/3
f 32/30/6 30/50/6 36/31/6
f 30/50/6 29/51/6 37/37/6
f 36/31/6 30/50/6 37/37/6
f 29/51/6 28/27/6 37/37/6
f 36/31/6 35/38/6 31/29/6
f 35/38/6 34/43/6 33/35/6
f 33/35/6 31/29/6 35/38/6
f 19/4/2 28/52/2 29/32/2
f 26/23/3 35/38/3 36/31/3
f 11/1/1 32/40/1 31/34/1
f 22/2/1 31/34/1 33/35/1
f 25/26/3 36/31/3 37/37/3
f 21/24/3 34/43/3 35/38/3
f 20/39/1 30/42/1 32/40/1
f 7/41/1 29/53/1 30/42/1
f 3/36/4 33/35/4 34/43/4
