# Blender v2.92.0 OBJ File: ''
# www.blender.org
mtllib cone.mtl
o Cone
v 1.000000 0.000000 -1.000000
v 0.997066 -0.076549 -1.000000
v 0.988280 -0.152649 -1.000000
v 0.973695 -0.227854 -1.000000
v 0.953396 -0.301721 -1.000000
v 0.927502 -0.373817 -1.000000
v 0.896166 -0.443720 -1.000000
v 0.859570 -0.511019 -1.000000
v 0.817929 -0.575319 -1.000000
v 0.771489 -0.636242 -1.000000
v 0.720522 -0.693433 -1.000000
v 0.665326 -0.746553 -1.000000
v 0.606225 -0.795293 -1.000000
v 0.543568 -0.839365 -1.000000
v 0.477720 -0.878512 -1.000000
v 0.409069 -0.912504 -1.000000
v 0.338017 -0.941140 -1.000000
v 0.264982 -0.964253 -1.000000
v 0.190391 -0.981708 -1.000000
v 0.114684 -0.993402 -1.000000
v 0.038303 -0.999266 -1.000000
v -0.038303 -0.999266 -1.000000
v -0.114683 -0.993402 -1.000000
v -0.190391 -0.981708 -1.000000
v -0.264981 -0.964254 -1.000000
v -0.338016 -0.941140 -1.000000
v -0.409068 -0.912504 -1.000000
v -0.477719 -0.878513 -1.000000
v -0.543567 -0.839366 -1.000000
v -0.606225 -0.795293 -1.000000
v -0.665325 -0.746554 -1.000000
v -0.720521 -0.693433 -1.000000
v -0.771489 -0.636243 -1.000000
v -0.817929 -0.575319 -1.000000
v -0.859569 -0.511019 -1.000000
v -0.896165 -0.443721 -1.000000
v -0.927502 -0.373818 -1.000000
v -0.953396 -0.301722 -1.000000
v -0.973695 -0.227855 -1.000000
v -0.988280 -0.152651 -1.000000
v -0.997066 -0.076551 -1.000000
v -1.000000 -0.000001 -1.000000
v -0.997066 0.076548 -1.000000
v -0.988281 0.152648 -1.000000
v -0.973696 0.227852 -1.000000
v -0.953397 0.301719 -1.000000
v -0.927503 0.373816 -1.000000
v -0.896166 0.443718 -1.000000
v -0.859571 0.511017 -1.000000
v -0.817930 0.575317 -1.000000
v -0.771490 0.636241 -1.000000
v -0.720523 0.693431 -1.000000
v -0.665327 0.746552 -1.000000
v -0.606227 0.795292 -1.000000
v -0.543569 0.839365 -1.000000
v -0.477721 0.878512 -1.000000
v -0.409070 0.912503 -1.000000
v -0.338018 0.941140 -1.000000
v -0.264982 0.964253 -1.000000
v -0.190392 0.981708 -1.000000
v -0.114684 0.993402 -1.000000
v -0.038303 0.999266 -1.000000
v 0.038303 0.999266 -1.000000
v 0.114683 0.993402 -1.000000
v 0.190391 0.981708 -1.000000
v 0.264982 0.964253 -1.000000
v 0.338017 0.941140 -1.000000
v 0.409069 0.912503 -1.000000
v 0.477721 0.878512 -1.000000
v 0.543568 0.839365 -1.000000
v 0.606226 0.795292 -1.000000
v 0.665327 0.746552 -1.000000
v 0.720523 0.693431 -1.000000
v 0.771490 0.636241 -1.000000
v 0.817931 0.575317 -1.000000
v 0.859571 0.511017 -1.000000
v 0.896167 0.443718 -1.000000
v 0.927503 0.373815 -1.000000
v 0.953397 0.301718 -1.000000
v 0.973696 0.227851 -1.000000
v 0.988281 0.152646 -1.000000
v 0.997066 0.076546 -1.000000
v 0.000000 0.000000 1.000000
vt 0.250000 0.490000
vt 0.250000 0.250000
vt 0.268372 0.489296
vt 0.286636 0.487187
vt 0.304685 0.483687
vt 0.322413 0.478815
vt 0.339716 0.472601
vt 0.356493 0.465080
vt 0.372644 0.456297
vt 0.388076 0.446303
vt 0.402698 0.435157
vt 0.416424 0.422925
vt 0.429173 0.409678
vt 0.440870 0.395494
vt 0.451448 0.380456
vt 0.460843 0.364653
vt 0.469001 0.348176
vt 0.475874 0.331124
vt 0.481421 0.313596
vt 0.485610 0.295694
vt 0.488416 0.277524
vt 0.489824 0.259193
vt 0.489824 0.240807
vt 0.488416 0.222476
vt 0.485610 0.204306
vt 0.481421 0.186405
vt 0.475874 0.168876
vt 0.469001 0.151824
vt 0.460843 0.135347
vt 0.451448 0.119544
vt 0.440870 0.104506
vt 0.429173 0.090322
vt 0.416424 0.077075
vt 0.402698 0.064843
vt 0.388077 0.053697
vt 0.372645 0.043703
vt 0.356493 0.034920
vt 0.339716 0.027400
vt 0.322413 0.021185
vt 0.304685 0.016313
vt 0.286636 0.012813
vt 0.268372 0.010704
vt 0.250000 0.010000
vt 0.231629 0.010704
vt 0.213365 0.012813
vt 0.195316 0.016313
vt 0.177587 0.021185
vt 0.160284 0.027399
vt 0.143508 0.034920
vt 0.127356 0.043703
vt 0.111924 0.053697
vt 0.097302 0.064842
vt 0.083577 0.077074
vt 0.070828 0.090321
vt 0.059130 0.104506
vt 0.048552 0.119543
vt 0.039157 0.135347
vt 0.030999 0.151823
vt 0.024126 0.168876
vt 0.018579 0.186404
vt 0.014390 0.204306
vt 0.011584 0.222476
vt 0.010176 0.240807
vt 0.010176 0.259193
vt 0.011584 0.277524
vt 0.014390 0.295694
vt 0.018579 0.313596
vt 0.024126 0.331124
vt 0.030999 0.348177
vt 0.039157 0.364653
vt 0.048552 0.380456
vt 0.059130 0.395494
vt 0.070827 0.409678
vt 0.083577 0.422925
vt 0.097302 0.435158
vt 0.111924 0.446303
vt 0.127356 0.456297
vt 0.143508 0.465080
vt 0.160284 0.472601
vt 0.177588 0.478815
vt 0.195316 0.483687
vt 0.213365 0.487187
vt 0.583577 0.077074
vt 0.530999 0.348177
vt 0.804685 0.483687
vt 0.231629 0.489296
vt 0.731629 0.489296
vt 0.750000 0.490000
vt 0.768372 0.489296
vt 0.786636 0.487187
vt 0.822413 0.478815
vt 0.839716 0.472601
vt 0.856493 0.465080
vt 0.872644 0.456297
vt 0.888076 0.446303
vt 0.902698 0.435157
vt 0.916424 0.422925
vt 0.929173 0.409678
vt 0.940870 0.395494
vt 0.951448 0.380456
vt 0.960843 0.364653
vt 0.969001 0.348176
vt 0.975874 0.331124
vt 0.981421 0.313596
vt 0.985610 0.295694
vt 0.988416 0.277524
vt 0.989824 0.259193
vt 0.985610 0.204306
vt 0.989824 0.240807
vt 0.988416 0.222476
vt 0.981421 0.186405
vt 0.975874 0.168876
vt 0.969001 0.151824
vt 0.960843 0.135347
vt 0.951448 0.119544
vt 0.940870 0.104506
vt 0.929173 0.090322
vt 0.916424 0.077075
vt 0.902698 0.064843
vt 0.888077 0.053697
vt 0.872645 0.043703
vt 0.856493 0.034920
vt 0.839716 0.027400
vt 0.786636 0.012813
vt 0.822413 0.021185
vt 0.804685 0.016313
vt 0.768372 0.010704
vt 0.750000 0.010000
vt 0.731629 0.010704
vt 0.713365 0.012813
vt 0.695316 0.016313
vt 0.677587 0.021185
vt 0.660284 0.027399
vt 0.643508 0.034920
vt 0.627356 0.043703
vt 0.611924 0.053697
vt 0.597302 0.064842
vt 0.570828 0.090321
vt 0.559130 0.104506
vt 0.548553 0.119543
vt 0.539157 0.135347
vt 0.530999 0.151823
vt 0.524126 0.168876
vt 0.518579 0.186404
vt 0.514390 0.204306
vt 0.511584 0.222476
vt 0.511584 0.277524
vt 0.510176 0.240807
vt 0.510176 0.259193
vt 0.514390 0.295694
vt 0.518579 0.313596
vt 0.524126 0.331124
vt 0.539157 0.364653
vt 0.570827 0.409678
vt 0.548552 0.380456
vt 0.559130 0.395494
vt 0.583577 0.422925
vt 0.627356 0.456297
vt 0.597302 0.435158
vt 0.611924 0.446303
vt 0.643508 0.465080
vt 0.660284 0.472601
vt 0.677588 0.478815
vt 0.695316 0.483687
vt 0.713365 0.487187
vn 0.8939 -0.0343 0.4470
vn 0.8887 -0.1026 0.4470
vn 0.8782 -0.1703 0.4470
vn 0.8626 -0.2370 0.4470
vn 0.8419 -0.3024 0.4470
vn 0.8163 -0.3659 0.4470
vn 0.7859 -0.4273 0.4470
vn 0.7509 -0.4863 0.4470
vn 0.7114 -0.5423 0.4470
vn 0.6678 -0.5952 0.4470
vn 0.6203 -0.6445 0.4470
vn 0.5692 -0.6901 0.4470
vn 0.5147 -0.7317 0.4470
vn 0.4571 -0.7689 0.4470
vn 0.3969 -0.8017 0.4470
vn 0.3344 -0.8297 0.4470
vn 0.2699 -0.8529 0.4470
vn 0.2038 -0.8710 0.4470
vn 0.1366 -0.8841 0.4470
vn 0.0685 -0.8919 0.4470
vn 0.0000 -0.8946 0.4470
vn -0.0685 -0.8919 0.4470
vn -0.1366 -0.8841 0.4470
vn -0.2038 -0.8710 0.4470
vn -0.2699 -0.8529 0.4470
vn -0.3344 -0.8297 0.4470
vn -0.3969 -0.8017 0.4470
vn -0.4571 -0.7689 0.4470
vn -0.5147 -0.7317 0.4470
vn -0.5692 -0.6901 0.4470
vn -0.6203 -0.6445 0.4470
vn -0.6678 -0.5952 0.4470
vn -0.7114 -0.5423 0.4470
vn -0.7509 -0.4863 0.4470
vn -0.7859 -0.4273 0.4470
vn -0.8163 -0.3659 0.4470
vn -0.8419 -0.3024 0.4470
vn -0.8626 -0.2370 0.4470
vn -0.8782 -0.1703 0.4470
vn -0.8887 -0.1026 0.4470
vn -0.8939 -0.0343 0.4470
vn -0.8939 0.0343 0.4470
vn -0.8887 0.1026 0.4470
vn -0.8782 0.1703 0.4470
vn -0.8626 0.2370 0.4470
vn -0.8419 0.3024 0.4470
vn -0.8163 0.3659 0.4470
vn -0.7859 0.4273 0.4470
vn -0.7509 0.4863 0.4470
vn -0.7114 0.5423 0.4470
vn -0.6678 0.5952 0.4470
vn -0.6203 0.6445 0.4470
vn -0.5692 0.6901 0.4470
vn -0.5147 0.7317 0.4470
vn -0.4571 0.7689 0.4470
vn -0.3969 0.8017 0.4470
vn -0.3344 0.8297 0.4470
vn -0.2699 0.8529 0.4470
vn -0.2038 0.8710 0.4470
vn -0.1366 0.8841 0.4470
vn -0.0685 0.8919 0.4470
vn -0.0000 0.8946 0.4470
vn 0.0685 0.8919 0.4470
vn 0.1366 0.8841 0.4470
vn 0.2038 0.8710 0.4470
vn 0.2699 0.8529 0.4470
vn 0.3344 0.8297 0.4470
vn 0.3969 0.8017 0.4470
vn 0.4571 0.7689 0.4470
vn 0.5147 0.7317 0.4470
vn 0.5692 0.6901 0.4470
vn 0.6203 0.6445 0.4470
vn 0.6678 0.5952 0.4470
vn 0.7114 0.5423 0.4470
vn 0.7509 0.4863 0.4470
vn 0.7859 0.4273 0.4470
vn 0.8163 0.3659 0.4470
vn 0.8419 0.3024 0.4470
vn 0.8626 0.2370 0.4470
vn 0.8782 0.1703 0.4470
vn 0.0000 0.0000 -1.0000
vn 0.8887 0.1026 0.4470
vn 0.8939 0.0343 0.4470
usemtl None
s off
f 1/1/1 83/2/1 2/3/1
f 2/3/2 83/2/2 3/4/2
f 3/4/3 83/2/3 4/5/3
f 4/5/4 83/2/4 5/6/4
f 5/6/5 83/2/5 6/7/5
f 6/7/6 83/2/6 7/8/6
f 7/8/7 83/2/7 8/9/7
f 8/9/8 83/2/8 9/10/8
f 9/10/9 83/2/9 10/11/9
f 10/11/10 83/2/10 11/12/10
f 11/12/11 83/2/11 12/13/11
f 12/13/12 83/2/12 13/14/12
f 13/14/13 83/2/13 14/15/13
f 14/15/14 83/2/14 15/16/14
f 15/16/15 83/2/15 16/17/15
f 16/17/16 83/2/16 17/18/16
f 17/18/17 83/2/17 18/19/17
f 18/19/18 83/2/18 19/20/18
f 19/20/19 83/2/19 20/21/19
f 20/21/20 83/2/20 21/22/20
f 21/22/21 83/2/21 22/23/21
f 22/23/22 83/2/22 23/24/22
f 23/24/23 83/2/23 24/25/23
f 24/25/24 83/2/24 25/26/24
f 25/26/25 83/2/25 26/27/25
f 26/27/26 83/2/26 27/28/26
f 27/28/27 83/2/27 28/29/27
f 28/29/28 83/2/28 29/30/28
f 29/30/29 83/2/29 30/31/29
f 30/31/30 83/2/30 31/32/30
f 31/32/31 83/2/31 32/33/31
f 32/33/32 83/2/32 33/34/32
f 33/34/33 83/2/33 34/35/33
f 34/35/34 83/2/34 35/36/34
f 35/36/35 83/2/35 36/37/35
f 36/37/36 83/2/36 37/38/36
f 37/38/37 83/2/37 38/39/37
f 38/39/38 83/2/38 39/40/38
f 39/40/39 83/2/39 40/41/39
f 40/41/40 83/2/40 41/42/40
f 41/42/41 83/2/41 42/43/41
f 42/43/42 83/2/42 43/44/42
f 43/44/43 83/2/43 44/45/43
f 44/45/44 83/2/44 45/46/44
f 45/46/45 83/2/45 46/47/45
f 46/47/46 83/2/46 47/48/46
f 47/48/47 83/2/47 48/49/47
f 48/49/48 83/2/48 49/50/48
f 49/50/49 83/2/49 50/51/49
f 50/51/50 83/2/50 51/52/50
f 51/52/51 83/2/51 52/53/51
f 52/53/52 83/2/52 53/54/52
f 53/54/53 83/2/53 54/55/53
f 54/55/54 83/2/54 55/56/54
f 55/56/55 83/2/55 56/57/55
f 56/57/56 83/2/56 57/58/56
f 57/58/57 83/2/57 58/59/57
f 58/59/58 83/2/58 59/60/58
f 59/60/59 83/2/59 60/61/59
f 60/61/60 83/2/60 61/62/60
f 61/62/61 83/2/61 62/63/61
f 62/63/62 83/2/62 63/64/62
f 63/64/63 83/2/63 64/65/63
f 64/65/64 83/2/64 65/66/64
f 65/66/65 83/2/65 66/67/65
f 66/67/66 83/2/66 67/68/66
f 67/68/67 83/2/67 68/69/67
f 68/69/68 83/2/68 69/70/68
f 69/70/69 83/2/69 70/71/69
f 70/71/70 83/2/70 71/72/70
f 71/72/71 83/2/71 72/73/71
f 72/73/72 83/2/72 73/74/72
f 73/74/73 83/2/73 74/75/73
f 74/75/74 83/2/74 75/76/74
f 75/76/75 83/2/75 76/77/75
f 76/77/76 83/2/76 77/78/76
f 77/78/77 83/2/77 78/79/77
f 78/79/78 83/2/78 79/80/78
f 79/80/79 83/2/79 80/81/79
f 80/81/80 83/2/80 81/82/80
f 52/83/81 68/84/81 4/85/81
f 81/82/82 83/2/82 82/86/82
f 82/86/83 83/2/83 1/1/83
f 82/87/81 1/88/81 2/89/81
f 2/89/81 3/90/81 4/85/81
f 4/85/81 5/91/81 6/92/81
f 6/92/81 7/93/81 4/85/81
f 7/93/81 8/94/81 4/85/81
f 8/94/81 9/95/81 10/96/81
f 10/96/81 11/97/81 12/98/81
f 12/98/81 13/99/81 14/100/81
f 14/100/81 15/101/81 16/102/81
f 16/102/81 17/103/81 18/104/81
f 18/104/81 19/105/81 16/102/81
f 19/105/81 20/106/81 16/102/81
f 20/106/81 21/107/81 24/108/81
f 21/107/81 22/109/81 24/108/81
f 22/109/81 23/110/81 24/108/81
f 24/108/81 25/111/81 26/112/81
f 26/112/81 27/113/81 28/114/81
f 28/114/81 29/115/81 30/116/81
f 30/116/81 31/117/81 32/118/81
f 32/118/81 33/119/81 34/120/81
f 34/120/81 35/121/81 32/118/81
f 35/121/81 36/122/81 32/118/81
f 36/122/81 37/123/81 40/124/81
f 37/123/81 38/125/81 40/124/81
f 38/125/81 39/126/81 40/124/81
f 40/124/81 41/127/81 42/128/81
f 42/128/81 43/129/81 40/124/81
f 43/129/81 44/130/81 40/124/81
f 44/130/81 45/131/81 46/132/81
f 46/132/81 47/133/81 48/134/81
f 48/134/81 49/135/81 50/136/81
f 50/136/81 51/137/81 48/134/81
f 51/137/81 52/83/81 48/134/81
f 52/83/81 53/138/81 54/139/81
f 54/139/81 55/140/81 56/141/81
f 56/141/81 57/142/81 58/143/81
f 58/143/81 59/144/81 56/141/81
f 59/144/81 60/145/81 56/141/81
f 60/145/81 61/146/81 64/147/81
f 61/146/81 62/148/81 64/147/81
f 62/148/81 63/149/81 64/147/81
f 64/147/81 65/150/81 66/151/81
f 66/151/81 67/152/81 68/84/81
f 68/84/81 69/153/81 72/154/81
f 69/153/81 70/155/81 72/154/81
f 70/155/81 71/156/81 72/154/81
f 72/154/81 73/157/81 76/158/81
f 73/157/81 74/159/81 76/158/81
f 74/159/81 75/160/81 76/158/81
f 76/158/81 77/161/81 78/162/81
f 78/162/81 79/163/81 80/164/81
f 80/164/81 81/165/81 4/85/81
f 81/165/81 82/87/81 4/85/81
f 82/87/81 2/89/81 4/85/81
f 8/94/81 10/96/81 4/85/81
f 10/96/81 12/98/81 4/85/81
f 12/98/81 14/100/81 16/102/81
f 24/108/81 26/112/81 20/106/81
f 26/112/81 28/114/81 20/106/81
f 28/114/81 30/116/81 32/118/81
f 44/130/81 46/132/81 52/83/81
f 46/132/81 48/134/81 52/83/81
f 52/83/81 54/139/81 56/141/81
f 64/147/81 66/151/81 60/145/81
f 66/151/81 68/84/81 60/145/81
f 76/158/81 78/162/81 4/85/81
f 78/162/81 80/164/81 4/85/81
f 12/98/81 16/102/81 20/106/81
f 28/114/81 32/118/81 36/122/81
f 36/122/81 40/124/81 52/83/81
f 40/124/81 44/130/81 52/83/81
f 52/83/81 56/141/81 68/84/81
f 56/141/81 60/145/81 68/84/81
f 68/84/81 72/154/81 4/85/81
f 72/154/81 76/158/81 4/85/81
f 4/85/81 12/98/81 20/106/81
f 20/106/81 28/114/81 4/85/81
f 28/114/81 36/122/81 4/85/81
f 36/122/81 52/83/81 4/85/81
