# Blender v2.92.0 OBJ File: 'test.blend'
# www.blender.org
mtllib twisted_cylinder.mtl
o Cylinder_Cylinder.001
v 1.000000 0.000000 -1.000000
v -0.664478 0.277783 1.724586
v 0.980785 -0.195090 -1.000000
v -0.673965 0.082693 1.707877
v 0.923880 -0.382683 -1.000000
v -0.702062 -0.104900 1.658391
v 0.831470 -0.555570 -1.000000
v -0.747689 -0.277787 1.578031
v 0.707107 -0.707107 -1.000000
v -0.809093 -0.429324 1.469884
v 0.555570 -0.831470 -1.000000
v -0.883913 -0.553686 1.338107
v 0.382683 -0.923880 -1.000000
v -0.969275 -0.646096 1.187764
v 0.195090 -0.980785 -1.000000
v -1.061898 -0.703002 1.024632
v 0.000000 -1.000000 -1.000000
v -1.158223 -0.722217 0.854980
v -0.195090 -0.980785 -1.000000
v -1.254548 -0.703002 0.685328
v -0.382683 -0.923880 -1.000000
v -1.347171 -0.646096 0.522196
v -0.555570 -0.831470 -1.000000
v -1.432534 -0.553686 0.371852
v -0.707107 -0.707107 -1.000000
v -1.507354 -0.429324 0.240075
v -0.831470 -0.555570 -1.000000
v -1.568758 -0.277787 0.131928
v -0.923880 -0.382683 -1.000000
v -1.614385 -0.104900 0.051568
v -0.980785 -0.195090 -1.000000
v -1.642481 0.082693 0.002083
v -1.000000 0.000000 -1.000000
v -1.651969 0.277783 -0.014627
v -0.980785 0.195091 -1.000000
v -1.642481 0.472874 0.002083
v -0.923879 0.382684 -1.000000
v -1.614384 0.660467 0.051568
v -0.831469 0.555571 -1.000000
v -1.568757 0.833354 0.131929
v -0.707106 0.707107 -1.000000
v -1.507354 0.984890 0.240075
v -0.555570 0.831470 -1.000000
v -1.432533 1.109253 0.371853
v -0.382683 0.923880 -1.000000
v -1.347171 1.201663 0.522196
v -0.195089 0.980785 -1.000000
v -1.254548 1.258569 0.685329
v 0.000001 1.000000 -1.000000
v -1.158223 1.277783 0.854981
v 0.195091 0.980785 -1.000000
v -1.061898 1.258568 1.024633
v 0.382684 0.923879 -1.000000
v -0.969275 1.201662 1.187765
v 0.555571 0.831469 -1.000000
v -0.883913 1.109252 1.338108
v 0.707108 0.707106 -1.000000
v -0.809092 0.984889 1.469885
v 0.831470 0.555569 -1.000000
v -0.747689 0.833352 1.578032
v 0.923880 0.382682 -1.000000
v -0.702062 0.660465 1.658392
v 0.980786 0.195089 -1.000000
v -0.673965 0.472872 1.707877
vt 1.000000 0.500000
vt 0.968750 1.000000
vt 0.968750 0.500000
vt 0.937500 1.000000
vt 0.937500 0.500000
vt 0.906250 1.000000
vt 0.906250 0.500000
vt 0.875000 1.000000
vt 0.875000 0.500000
vt 0.843750 1.000000
vt 0.843750 0.500000
vt 0.812500 1.000000
vt 0.812500 0.500000
vt 0.781250 1.000000
vt 0.781250 0.500000
vt 0.750000 0.500000
vt 0.750000 1.000000
vt 0.718750 0.500000
vt 0.718750 1.000000
vt 0.687500 0.500000
vt 0.687500 1.000000
vt 0.656250 0.500000
vt 0.656250 1.000000
vt 0.625000 0.500000
vt 0.625000 1.000000
vt 0.593750 0.500000
vt 0.593750 1.000000
vt 0.562500 0.500000
vt 0.562500 1.000000
vt 0.531250 0.500000
vt 0.531250 1.000000
vt 0.500000 0.500000
vt 0.500000 1.000000
vt 0.468750 0.500000
vt 0.468750 1.000000
vt 0.437500 0.500000
vt 0.437500 1.000000
vt 0.406250 0.500000
vt 0.406250 1.000000
vt 0.375000 0.500000
vt 0.375000 1.000000
vt 0.343750 0.500000
vt 0.343750 1.000000
vt 0.312500 0.500000
vt 0.312500 1.000000
vt 0.281250 0.500000
vt 0.250000 1.000000
vt 0.250000 0.500000
vt 0.218750 1.000000
vt 0.218750 0.500000
vt 0.187500 1.000000
vt 0.187500 0.500000
vt 0.156250 1.000000
vt 0.156250 0.500000
vt 0.125000 1.000000
vt 0.125000 0.500000
vt 0.093750 1.000000
vt 0.093750 0.500000
vt 0.062500 1.000000
vt 0.062500 0.500000
vt 0.028269 0.341844
vt 0.158156 0.028269
vt 0.471731 0.158156
vt 0.031250 1.000000
vt 0.031250 0.500000
vt 0.000000 1.000000
vt 0.000000 0.500000
vt 0.985388 0.296822
vt 0.796822 0.014612
vt 0.514611 0.203179
vt 1.000000 1.000000
vt 0.281250 1.000000
vt 0.341844 0.471731
vt 0.296822 0.485388
vt 0.250000 0.490000
vt 0.203179 0.485389
vt 0.158156 0.471731
vt 0.116663 0.449553
vt 0.080295 0.419706
vt 0.050447 0.383337
vt 0.014612 0.296822
vt 0.010000 0.250000
vt 0.014611 0.203179
vt 0.028269 0.158156
vt 0.050447 0.116663
vt 0.080294 0.080294
vt 0.116663 0.050447
vt 0.203178 0.014612
vt 0.250000 0.010000
vt 0.296822 0.014612
vt 0.341844 0.028269
vt 0.383337 0.050447
vt 0.419706 0.080294
vt 0.449553 0.116663
vt 0.485388 0.203178
vt 0.490000 0.250000
vt 0.485388 0.296822
vt 0.471731 0.341844
vt 0.449553 0.383337
vt 0.419706 0.419706
vt 0.383337 0.449553
vt 0.703179 0.485389
vt 0.750000 0.490000
vt 0.796822 0.485388
vt 0.841844 0.471731
vt 0.883337 0.449553
vt 0.919706 0.419706
vt 0.949553 0.383337
vt 0.971731 0.341844
vt 0.990000 0.250000
vt 0.985388 0.203178
vt 0.971731 0.158156
vt 0.949553 0.116663
vt 0.919706 0.080294
vt 0.883337 0.050447
vt 0.841844 0.028269
vt 0.750000 0.010000
vt 0.703178 0.014612
vt 0.658156 0.028269
vt 0.616663 0.050447
vt 0.580294 0.080294
vt 0.550447 0.116663
vt 0.528269 0.158156
vt 0.510000 0.250000
vt 0.514612 0.296822
vt 0.528269 0.341844
vt 0.550447 0.383337
vt 0.580295 0.419706
vt 0.616663 0.449553
vt 0.658156 0.471731
vn 0.8465 -0.0834 0.5258
vn 0.8149 -0.2472 0.5242
vn 0.7592 -0.4058 0.5088
vn 0.6785 -0.5568 0.4791
vn 0.5714 -0.6962 0.4345
vn 0.4372 -0.8179 0.3740
vn 0.2771 -0.9136 0.2974
vn 0.0962 -0.9763 0.1937
vn -0.0976 -0.9914 0.0875
vn -0.2902 -0.9566 -0.0247
vn -0.4670 -0.8737 -0.1365
vn -0.6156 -0.7501 -0.2416
vn -0.7281 -0.5975 -0.3360
vn -0.8016 -0.4285 -0.4170
vn -0.8379 -0.2542 -0.4831
vn -0.8420 -0.0829 -0.5330
vn -0.8206 0.0808 -0.5657
vn -0.7794 0.2364 -0.5802
vn -0.7213 0.3855 -0.5755
vn -0.6454 0.5297 -0.5504
vn -0.5482 0.6679 -0.5034
vn -0.4250 0.7951 -0.4327
vn -0.2732 0.9008 -0.3375
vn -0.0959 0.9739 -0.2057
vn 0.0977 0.9923 -0.0755
vn 0.2898 0.9553 0.0578
vn 0.4635 0.8671 0.1823
vn 0.6072 0.7399 0.2895
vn 0.7164 0.5880 0.3755
vn 0.7919 0.4233 0.4401
vn -0.8696 -0.0000 0.4937
vn 0.8367 0.2538 0.4853
vn 0.8541 0.0841 0.5132
vn 0.0000 0.0000 -1.0000
vn 0.8462 -0.0862 0.5258
vn 0.8120 -0.2595 0.5228
vn 0.7488 -0.4315 0.5031
vn 0.6540 -0.5968 0.4649
vn 0.5256 -0.7472 0.4067
vn 0.3650 -0.8712 0.3282
vn 0.1789 -0.9561 0.2320
vn -0.0303 -0.9911 0.1295
vn -0.2264 -0.9739 0.0182
vn -0.4029 -0.9109 -0.0890
vn -0.5507 -0.8134 -0.1873
vn -0.6667 -0.6926 -0.2751
vn -0.7519 -0.5567 -0.3531
vn -0.8084 -0.4098 -0.4226
vn -0.8381 -0.2530 -0.4833
vn -0.8419 -0.0866 -0.5326
vn -0.8198 0.0883 -0.5658
vn -0.7714 0.2678 -0.5773
vn -0.6963 0.4454 -0.5628
vn -0.5945 0.6126 -0.5209
vn -0.4667 0.7600 -0.4523
vn -0.3158 0.8778 -0.3603
vn -0.1472 0.9569 -0.2502
vn 0.0427 0.9897 -0.1363
vn 0.2154 0.9765 -0.0117
vn 0.3763 0.9203 0.1074
vn 0.5179 0.8280 0.2149
vn 0.6358 0.7081 0.3073
vn 0.7281 0.5684 0.3831
vn 0.7950 0.4153 0.4422
vn 0.8368 0.2534 0.4853
vn 0.8540 0.0855 0.5131
usemtl None
s off
f 1/1/1 4/2/1 3/3/1
f 3/3/2 6/4/2 5/5/2
f 5/5/3 8/6/3 7/7/3
f 7/7/4 10/8/4 9/9/4
f 9/9/5 12/10/5 11/11/5
f 11/11/6 14/12/6 13/13/6
f 13/13/7 16/14/7 15/15/7
f 16/14/8 17/16/8 15/15/8
f 18/17/9 19/18/9 17/16/9
f 20/19/10 21/20/10 19/18/10
f 22/21/11 23/22/11 21/20/11
f 24/23/12 25/24/12 23/22/12
f 26/25/13 27/26/13 25/24/13
f 28/27/14 29/28/14 27/26/14
f 30/29/15 31/30/15 29/28/15
f 32/31/16 33/32/16 31/30/16
f 34/33/17 35/34/17 33/32/17
f 36/35/18 37/36/18 35/34/18
f 38/37/19 39/38/19 37/36/19
f 40/39/20 41/40/20 39/38/20
f 42/41/21 43/42/21 41/40/21
f 44/43/22 45/44/22 43/42/22
f 46/45/23 47/46/23 45/44/23
f 47/46/24 50/47/24 49/48/24
f 49/48/25 52/49/25 51/50/25
f 51/50/26 54/51/26 53/52/26
f 53/52/27 56/53/27 55/54/27
f 55/54/28 58/55/28 57/56/28
f 57/56/29 60/57/29 59/58/29
f 59/58/30 62/59/30 61/60/30
f 54/61/31 38/62/31 22/63/31
f 61/60/32 64/64/32 63/65/32
f 63/65/33 2/66/33 1/67/33
f 15/68/34 31/69/34 47/70/34
f 1/1/35 2/71/35 4/2/35
f 3/3/36 4/2/36 6/4/36
f 5/5/37 6/4/37 8/6/37
f 7/7/38 8/6/38 10/8/38
f 9/9/39 10/8/39 12/10/39
f 11/11/40 12/10/40 14/12/40
f 13/13/41 14/12/41 16/14/41
f 16/14/42 18/17/42 17/16/42
f 18/17/43 20/19/43 19/18/43
f 20/19/44 22/21/44 21/20/44
f 22/21/45 24/23/45 23/22/45
f 24/23/46 26/25/46 25/24/46
f 26/25/47 28/27/47 27/26/47
f 28/27/48 30/29/48 29/28/48
f 30/29/49 32/31/49 31/30/49
f 32/31/50 34/33/50 33/32/50
f 34/33/51 36/35/51 35/34/51
f 36/35/52 38/37/52 37/36/52
f 38/37/53 40/39/53 39/38/53
f 40/39/54 42/41/54 41/40/54
f 42/41/55 44/43/55 43/42/55
f 44/43/56 46/45/56 45/44/56
f 46/45/57 48/72/57 47/46/57
f 47/46/58 48/72/58 50/47/58
f 49/48/59 50/47/59 52/49/59
f 51/50/60 52/49/60 54/51/60
f 53/52/61 54/51/61 56/53/61
f 55/54/62 56/53/62 58/55/62
f 57/56/63 58/55/63 60/57/63
f 59/58/64 60/57/64 62/59/64
f 6/73/31 4/74/31 2/75/31
f 2/75/31 64/76/31 62/77/31
f 62/77/31 60/78/31 54/61/31
f 60/78/31 58/79/31 54/61/31
f 58/79/31 56/80/31 54/61/31
f 54/61/31 52/81/31 50/82/31
f 50/82/31 48/83/31 54/61/31
f 48/83/31 46/84/31 54/61/31
f 46/84/31 44/85/31 38/62/31
f 44/85/31 42/86/31 38/62/31
f 42/86/31 40/87/31 38/62/31
f 38/62/31 36/88/31 34/89/31
f 34/89/31 32/90/31 38/62/31
f 32/90/31 30/91/31 38/62/31
f 30/91/31 28/92/31 26/93/31
f 26/93/31 24/94/31 22/63/31
f 22/63/31 20/95/31 18/96/31
f 18/96/31 16/97/31 14/98/31
f 14/98/31 12/99/31 10/100/31
f 10/100/31 8/101/31 14/98/31
f 8/101/31 6/73/31 14/98/31
f 6/73/31 2/75/31 54/61/31
f 2/75/31 62/77/31 54/61/31
f 30/91/31 26/93/31 38/62/31
f 26/93/31 22/63/31 38/62/31
f 22/63/31 18/96/31 6/73/31
f 18/96/31 14/98/31 6/73/31
f 54/61/31 46/84/31 38/62/31
f 6/73/31 54/61/31 22/63/31
f 61/60/65 62/59/65 64/64/65
f 63/65/66 64/64/66 2/66/66
f 63/102/34 1/103/34 3/104/34
f 3/104/34 5/105/34 7/106/34
f 7/106/34 9/107/34 11/108/34
f 11/108/34 13/109/34 7/106/34
f 13/109/34 15/68/34 7/106/34
f 15/68/34 17/110/34 19/111/34
f 19/111/34 21/112/34 15/68/34
f 21/112/34 23/113/34 15/68/34
f 23/113/34 25/114/34 31/69/34
f 25/114/34 27/115/34 31/69/34
f 27/115/34 29/116/34 31/69/34
f 31/69/34 33/117/34 35/118/34
f 35/118/34 37/119/34 39/120/34
f 39/120/34 41/121/34 43/122/34
f 43/122/34 45/123/34 47/70/34
f 47/70/34 49/124/34 51/125/34
f 51/125/34 53/126/34 55/127/34
f 55/127/34 57/128/34 63/102/34
f 57/128/34 59/129/34 63/102/34
f 59/129/34 61/130/34 63/102/34
f 63/102/34 3/104/34 7/106/34
f 31/69/34 35/118/34 47/70/34
f 35/118/34 39/120/34 47/70/34
f 39/120/34 43/122/34 47/70/34
f 47/70/34 51/125/34 63/102/34
f 51/125/34 55/127/34 63/102/34
f 63/102/34 7/106/34 15/68/34
f 15/68/34 23/113/34 31/69/34
f 63/102/34 15/68/34 47/70/34
