# Blender v2.92.0 OBJ File: ''
# www.blender.org
mtllib diamond.mtl
o Diamond
v 0.000000 0.000000 0.350000
v 0.000000 0.000000 -0.800000
v 0.000000 -0.600000 0.350000
v 0.000000 -1.000000 0.000000
v -0.060701 -0.596922 0.350000
v -0.101168 -0.994869 0.000000
v -0.120779 -0.587718 0.350000
v -0.201299 -0.979530 0.000000
v -0.179618 -0.572484 0.350000
v -0.299363 -0.954139 0.000000
v -0.236614 -0.551375 0.350000
v -0.394356 -0.918958 0.000000
v -0.291181 -0.524608 0.350000
v -0.485302 -0.874347 0.000000
v -0.342761 -0.492458 0.350000
v -0.571268 -0.820764 0.000000
v -0.390823 -0.455255 0.350000
v -0.651372 -0.758758 0.000000
v -0.434876 -0.413380 0.350000
v -0.724793 -0.688967 0.000000
v -0.474465 -0.367264 0.350000
v -0.790776 -0.612106 0.000000
v -0.509187 -0.317378 0.350000
v -0.848644 -0.528964 0.000000
v -0.538683 -0.264237 0.350000
v -0.897805 -0.440394 0.000000
v -0.562651 -0.208383 0.350000
v -0.937752 -0.347305 0.000000
v -0.580846 -0.150392 0.350000
v -0.968077 -0.250652 0.000000
v -0.593081 -0.090857 0.350000
v -0.988468 -0.151428 0.000000
v -0.599230 -0.030389 0.350000
v -0.998717 -0.050649 0.000000
v -0.599230 0.030390 0.350000
v -0.998717 0.050649 0.000000
v -0.593081 0.090857 0.350000
v -0.988468 0.151428 0.000000
v -0.580846 0.150391 0.350000
v -0.968077 0.250652 0.000000
v -0.562651 0.208383 0.350000
v -0.937752 0.347306 0.000000
v -0.538683 0.264236 0.350000
v -0.897805 0.440394 0.000000
v -0.509187 0.317379 0.350000
v -0.848644 0.528964 0.000000
v -0.474465 0.367263 0.350000
v -0.790776 0.612106 0.000000
v -0.434876 0.413380 0.350000
v -0.724793 0.688967 0.000000
v -0.390824 0.455255 0.350000
v -0.651373 0.758758 0.000000
v -0.342761 0.492458 0.350000
v -0.571268 0.820763 0.000000
v -0.291181 0.524608 0.350000
v -0.485302 0.874347 0.000000
v -0.236614 0.551375 0.350000
v -0.394356 0.918958 0.000000
v -0.179618 0.572484 0.350000
v -0.299363 0.954139 0.000000
v -0.120779 0.587718 0.350000
v -0.201298 0.979530 0.000000
v -0.060701 0.596922 0.350000
v -0.101168 0.994869 0.000000
v -0.000000 0.600000 0.350000
v -0.000000 1.000000 0.000000
v 0.060701 0.596922 0.350000
v 0.101168 0.994869 0.000000
v 0.120779 0.587718 0.350000
v 0.201298 0.979530 0.000000
v 0.179618 0.572484 0.350000
v 0.299363 0.954139 0.000000
v 0.236613 0.551375 0.350000
v 0.394355 0.918958 0.000000
v 0.291181 0.524608 0.350000
v 0.485302 0.874347 0.000000
v 0.342761 0.492458 0.350000
v 0.571268 0.820764 0.000000
v 0.390824 0.455255 0.350000
v 0.651373 0.758758 0.000000
v 0.434876 0.413380 0.350000
v 0.724793 0.688967 0.000000
v 0.474465 0.367263 0.350000
v 0.790776 0.612106 0.000000
v 0.509187 0.317379 0.350000
v 0.848644 0.528964 0.000000
v 0.538683 0.264236 0.350000
v 0.897805 0.440394 0.000000
v 0.562651 0.208383 0.350000
v 0.937752 0.347306 0.000000
v 0.580846 0.150391 0.350000
v 0.968077 0.250652 0.000000
v 0.593081 0.090857 0.350000
v 0.988468 0.151428 0.000000
v 0.599230 0.030389 0.350000
v 0.998717 0.050649 0.000000
v 0.599230 -0.030389 0.350000
v 0.998717 -0.050649 0.000000
v 0.593081 -0.090856 0.350000
v 0.988468 -0.151427 0.000000
v 0.580846 -0.150392 0.350000
v 0.968077 -0.250652 0.000000
v 0.562651 -0.208383 0.350000
v 0.937752 -0.347305 0.000000
v 0.538683 -0.264237 0.350000
v 0.897805 -0.440394 0.000000
v 0.509187 -0.317378 0.350000
v 0.848644 -0.528964 0.000000
v 0.474465 -0.367264 0.350000
v 0.790776 -0.612106 0.000000
v 0.434876 -0.413380 0.350000
v 0.724793 -0.688967 0.000000
v 0.390823 -0.455255 0.350000
v 0.651372 -0.758758 0.000000
v 0.342761 -0.492458 0.350000
v 0.571269 -0.820763 0.000000
v 0.291181 -0.524608 0.350000
v 0.485302 -0.874347 0.000000
v 0.236614 -0.551375 0.350000
v 0.394356 -0.918958 0.000000
v 0.179618 -0.572484 0.350000
v 0.299363 -0.954139 0.000000
v 0.120779 -0.587718 0.350000
v 0.201299 -0.979530 0.000000
v 0.060701 -0.596922 0.350000
v 0.101168 -0.994869 0.000000
vn 0.0317 -0.6244 -0.7805
vn -0.0317 -0.6244 -0.7805
vn -0.0947 -0.6180 -0.7805
vn -0.1567 -0.6052 -0.7805
vn -0.2171 -0.5863 -0.7805
vn -0.2753 -0.5613 -0.7805
vn -0.3307 -0.5306 -0.7805
vn -0.3827 -0.4944 -0.7805
vn -0.4307 -0.4531 -0.7805
vn -0.4744 -0.4072 -0.7805
vn -0.5131 -0.3571 -0.7805
vn -0.5466 -0.3034 -0.7805
vn -0.5745 -0.2465 -0.7805
vn -0.5965 -0.1872 -0.7805
vn -0.6124 -0.1258 -0.7805
vn -0.6220 -0.0632 -0.7805
vn -0.6252 0.0000 -0.7805
vn -0.6220 0.0632 -0.7805
vn -0.6124 0.1258 -0.7805
vn -0.5965 0.1872 -0.7805
vn -0.5745 0.2465 -0.7805
vn -0.5466 0.3034 -0.7805
vn -0.5131 0.3571 -0.7805
vn -0.4744 0.4072 -0.7805
vn -0.4307 0.4531 -0.7805
vn -0.3827 0.4944 -0.7805
vn -0.3307 0.5306 -0.7805
vn -0.2753 0.5613 -0.7805
vn -0.2171 0.5863 -0.7805
vn -0.1567 0.6052 -0.7805
vn -0.0947 0.6180 -0.7805
vn -0.0317 0.6244 -0.7805
vn 0.0317 0.6244 -0.7805
vn 0.0947 0.6180 -0.7805
vn 0.1567 0.6052 -0.7805
vn 0.2171 0.5863 -0.7805
vn 0.2753 0.5613 -0.7805
vn 0.3307 0.5306 -0.7805
vn 0.3827 0.4944 -0.7805
vn 0.4307 0.4531 -0.7805
vn 0.4744 0.4072 -0.7805
vn 0.5131 0.3571 -0.7805
vn 0.5466 0.3034 -0.7805
vn 0.5745 0.2465 -0.7805
vn 0.5965 0.1872 -0.7805
vn 0.6124 0.1258 -0.7805
vn 0.6220 0.0632 -0.7805
vn 0.6252 0.0000 -0.7805
vn 0.6220 -0.0632 -0.7805
vn 0.6124 -0.1258 -0.7805
vn 0.5965 -0.1872 -0.7805
vn 0.5745 -0.2465 -0.7805
vn 0.5466 -0.3034 -0.7805
vn 0.5131 -0.3571 -0.7805
vn 0.4744 -0.4072 -0.7805
vn 0.4307 -0.4531 -0.7805
vn 0.3827 -0.4944 -0.7805
vn 0.3307 -0.5306 -0.7805
vn 0.2753 -0.5613 -0.7805
vn 0.2171 -0.5863 -0.7805
vn 0.1567 -0.6052 -0.7805
vn 0.0947 -0.6180 -0.7805
vn 0.0334 -0.6581 0.7522
vn -0.0334 -0.6581 0.7522
vn -0.0998 -0.6514 0.7522
vn -0.1652 -0.6379 0.7522
vn -0.2289 -0.6180 0.7522
vn -0.2902 -0.5916 0.7522
vn -0.3486 -0.5592 0.7522
vn -0.4034 -0.5211 0.7522
vn -0.4540 -0.4776 0.7522
vn -0.5000 -0.4292 0.7522
vn -0.5409 -0.3765 0.7522
vn -0.5762 -0.3198 0.7522
vn -0.6056 -0.2599 0.7522
vn -0.6288 -0.1973 0.7522
vn -0.6455 -0.1327 0.7522
vn -0.6556 -0.0667 0.7522
vn -0.6590 0.0000 0.7522
vn -0.6556 0.0667 0.7522
vn -0.6455 0.1327 0.7522
vn -0.6288 0.1973 0.7522
vn -0.6056 0.2599 0.7522
vn -0.5762 0.3198 0.7522
vn -0.5409 0.3765 0.7522
vn -0.5000 0.4292 0.7522
vn -0.4540 0.4776 0.7522
vn -0.4034 0.5211 0.7522
vn -0.3486 0.5592 0.7522
vn -0.2902 0.5916 0.7522
vn -0.2289 0.6180 0.7522
vn -0.1652 0.6379 0.7522
vn -0.0998 0.6514 0.7522
vn -0.0334 0.6581 0.7522
vn 0.0334 0.6581 0.7522
vn 0.0998 0.6514 0.7522
vn 0.1652 0.6379 0.7522
vn 0.2289 0.6180 0.7522
vn 0.2902 0.5916 0.7522
vn 0.3486 0.5592 0.7522
vn 0.4034 0.5211 0.7522
vn 0.4540 0.4776 0.7522
vn 0.5000 0.4292 0.7522
vn 0.5409 0.3765 0.7522
vn 0.5762 0.3198 0.7522
vn 0.6056 0.2599 0.7522
vn 0.6288 0.1973 0.7522
vn 0.6455 0.1327 0.7522
vn 0.6556 0.0667 0.7522
vn 0.6590 0.0000 0.7522
vn 0.6556 -0.0667 0.7522
vn 0.6455 -0.1327 0.7522
vn 0.6288 -0.1973 0.7522
vn 0.6056 -0.2599 0.7522
vn 0.5762 -0.3198 0.7522
vn 0.5409 -0.3765 0.7522
vn 0.5000 -0.4292 0.7522
vn 0.4540 -0.4776 0.7522
vn 0.4034 -0.5211 0.7522
vn 0.3486 -0.5592 0.7522
vn 0.2902 -0.5916 0.7522
vn 0.2289 -0.6180 0.7522
vn 0.1652 -0.6379 0.7522
vn 0.0998 -0.6514 0.7522
vn 0.0000 0.0000 1.0000
usemtl None
s off
f 4//1 2//1 126//1
f 2//2 4//2 6//2
f 2//3 6//3 8//3
f 2//4 8//4 10//4
f 2//5 10//5 12//5
f 2//6 12//6 14//6
f 2//7 14//7 16//7
f 2//8 16//8 18//8
f 2//9 18//9 20//9
f 2//10 20//10 22//10
f 2//11 22//11 24//11
f 2//12 24//12 26//12
f 2//13 26//13 28//13
f 2//14 28//14 30//14
f 2//15 30//15 32//15
f 2//16 32//16 34//16
f 2//17 34//17 36//17
f 2//18 36//18 38//18
f 2//19 38//19 40//19
f 2//20 40//20 42//20
f 2//21 42//21 44//21
f 2//22 44//22 46//22
f 2//23 46//23 48//23
f 2//24 48//24 50//24
f 2//25 50//25 52//25
f 2//26 52//26 54//26
f 2//27 54//27 56//27
f 2//28 56//28 58//28
f 2//29 58//29 60//29
f 2//30 60//30 62//30
f 2//31 62//31 64//31
f 2//32 64//32 66//32
f 2//33 66//33 68//33
f 2//34 68//34 70//34
f 2//35 70//35 72//35
f 2//36 72//36 74//36
f 2//37 74//37 76//37
f 2//38 76//38 78//38
f 2//39 78//39 80//39
f 2//40 80//40 82//40
f 2//41 82//41 84//41
f 2//42 84//42 86//42
f 2//43 86//43 88//43
f 2//44 88//44 90//44
f 2//45 90//45 92//45
f 2//46 92//46 94//46
f 2//47 94//47 96//47
f 2//48 96//48 98//48
f 2//49 98//49 100//49
f 2//50 100//50 102//50
f 2//51 102//51 104//51
f 2//52 104//52 106//52
f 2//53 106//53 108//53
f 2//54 108//54 110//54
f 2//55 110//55 112//55
f 2//56 112//56 114//56
f 2//57 114//57 116//57
f 2//58 116//58 118//58
f 2//59 118//59 120//59
f 2//60 120//60 122//60
f 2//61 122//61 124//61
f 2//62 124//62 126//62
f 4//63 125//63 3//63
f 4//64 5//64 6//64
f 5//65 8//65 6//65
f 7//66 10//66 8//66
f 9//67 12//67 10//67
f 11//68 14//68 12//68
f 13//69 16//69 14//69
f 15//70 18//70 16//70
f 18//71 19//71 20//71
f 19//72 22//72 20//72
f 21//73 24//73 22//73
f 23//74 26//74 24//74
f 25//75 28//75 26//75
f 27//76 30//76 28//76
f 30//77 31//77 32//77
f 31//78 34//78 32//78
f 33//79 36//79 34//79
f 36//80 37//80 38//80
f 37//81 40//81 38//81
f 39//82 42//82 40//82
f 41//83 44//83 42//83
f 43//84 46//84 44//84
f 45//85 48//85 46//85
f 47//86 50//86 48//86
f 49//87 52//87 50//87
f 51//88 54//88 52//88
f 54//89 55//89 56//89
f 55//90 58//90 56//90
f 57//91 60//91 58//91
f 59//92 62//92 60//92
f 61//93 64//93 62//93
f 63//94 66//94 64//94
f 66//95 67//95 68//95
f 67//96 70//96 68//96
f 69//97 72//97 70//97
f 71//98 74//98 72//98
f 73//99 76//99 74//99
f 75//100 78//100 76//100
f 78//101 79//101 80//101
f 79//102 82//102 80//102
f 81//103 84//103 82//103
f 83//104 86//104 84//104
f 85//105 88//105 86//105
f 87//106 90//106 88//106
f 89//107 92//107 90//107
f 92//108 93//108 94//108
f 93//109 96//109 94//109
f 95//110 98//110 96//110
f 97//111 100//111 98//111
f 100//112 101//112 102//112
f 101//113 104//113 102//113
f 103//114 106//114 104//114
f 105//115 108//115 106//115
f 108//116 109//116 110//116
f 110//117 111//117 112//117
f 111//118 114//118 112//118
f 113//119 116//119 114//119
f 115//120 118//120 116//120
f 117//121 120//121 118//121
f 119//122 122//122 120//122
f 121//123 124//123 122//123
f 123//124 126//124 124//124
f 1//125 3//125 125//125
f 3//125 1//125 5//125
f 5//125 1//125 7//125
f 7//125 1//125 9//125
f 9//125 1//125 11//125
f 11//125 1//125 13//125
f 13//125 1//125 15//125
f 15//125 1//125 17//125
f 17//125 1//125 19//125
f 19//125 1//125 21//125
f 21//125 1//125 23//125
f 23//125 1//125 25//125
f 25//125 1//125 27//125
f 27//125 1//125 29//125
f 29//125 1//125 31//125
f 31//125 1//125 33//125
f 33//125 1//125 35//125
f 35//125 1//125 37//125
f 37//125 1//125 39//125
f 39//125 1//125 41//125
f 41//125 1//125 43//125
f 43//125 1//125 45//125
f 45//125 1//125 47//125
f 47//125 1//125 49//125
f 49//125 1//125 51//125
f 51//125 1//125 53//125
f 53//125 1//125 55//125
f 55//125 1//125 57//125
f 57//125 1//125 59//125
f 59//125 1//125 61//125
f 61//125 1//125 63//125
f 63//125 1//125 65//125
f 65//125 1//125 67//125
f 67//125 1//125 69//125
f 69//125 1//125 71//125
f 71//125 1//125 73//125
f 73//125 1//125 75//125
f 75//125 1//125 77//125
f 77//125 1//125 79//125
f 79//125 1//125 81//125
f 81//125 1//125 83//125
f 83//125 1//125 85//125
f 85//125 1//125 87//125
f 87//125 1//125 89//125
f 89//125 1//125 91//125
f 91//125 1//125 93//125
f 93//125 1//125 95//125
f 95//125 1//125 97//125
f 97//125 1//125 99//125
f 99//125 1//125 101//125
f 101//125 1//125 103//125
f 103//125 1//125 105//125
f 105//125 1//125 107//125
f 107//125 1//125 109//125
f 109//125 1//125 111//125
f 111//125 1//125 113//125
f 113//125 1//125 115//125
f 115//125 1//125 117//125
f 117//125 1//125 119//125
f 119//125 1//125 121//125
f 121//125 1//125 123//125
f 123//125 1//125 125//125
f 4//63 126//63 125//63
f 4//64 3//64 5//64
f 5//65 7//65 8//65
f 7//66 9//66 10//66
f 9//67 11//67 12//67
f 11//68 13//68 14//68
f 13//69 15//69 16//69
f 15//70 17//70 18//70
f 18//71 17//71 19//71
f 19//72 21//72 22//72
f 21//73 23//73 24//73
f 23//74 25//74 26//74
f 25//75 27//75 28//75
f 27//76 29//76 30//76
f 30//77 29//77 31//77
f 31//78 33//78 34//78
f 33//79 35//79 36//79
f 36//80 35//80 37//80
f 37//81 39//81 40//81
f 39//82 41//82 42//82
f 41//83 43//83 44//83
f 43//84 45//84 46//84
f 45//85 47//85 48//85
f 47//86 49//86 50//86
f 49//87 51//87 52//87
f 51//88 53//88 54//88
f 54//89 53//89 55//89
f 55//90 57//90 58//90
f 57//91 59//91 60//91
f 59//92 61//92 62//92
f 61//93 63//93 64//93
f 63//94 65//94 66//94
f 66//95 65//95 67//95
f 67//96 69//96 70//96
f 69//97 71//97 72//97
f 71//98 73//98 74//98
f 73//99 75//99 76//99
f 75//100 77//100 78//100
f 78//101 77//101 79//101
f 79//102 81//102 82//102
f 81//103 83//103 84//103
f 83//104 85//104 86//104
f 85//105 87//105 88//105
f 87//106 89//106 90//106
f 89//107 91//107 92//107
f 92//108 91//108 93//108
f 93//109 95//109 96//109
f 95//110 97//110 98//110
f 97//111 99//111 100//111
f 100//112 99//112 101//112
f 101//113 103//113 104//113
f 103//114 105//114 106//114
f 105//115 107//115 108//115
f 108//116 107//116 109//116
f 110//117 109//117 111//117
f 111//118 113//118 114//118
f 113//119 115//119 116//119
f 115//120 117//120 118//120
f 117//121 119//121 120//121
f 119//122 121//122 122//122
f 121//123 123//123 124//123
f 123//124 125//124 126//124
