# MATLAB writeObj() OBJ File: ''
o result.obj
v -0.856468 -0.390185 0.005871
v -0.856328 -0.368040 -0.038499
v -0.852933 -0.383164 0.028431
v -0.721090 0.513775 -0.444600
v -0.708489 0.569343 -0.427373
v -0.701609 0.589192 -0.396259
v -0.653583 0.398244 0.503078
v -0.645578 0.445480 0.489309
v -0.446966 0.093897 -0.725781
v -0.407084 0.671294 -0.368233
v -0.337584 -0.323399 -0.776654
v -0.277140 -0.439177 0.729952
v -0.229847 -0.214578 0.853906
v -0.221552 -0.356351 0.823214
v -0.216925 -0.385121 -0.804444
v -0.169163 -0.367273 -0.812440
v 0.020200 -0.921307 -0.031051
v 0.054097 -0.931535 -0.006931
v 0.070936 -0.927702 -0.006549
v 0.087589 0.440251 -0.804852
v 0.162390 0.548842 -0.791703
v 0.164498 0.549644 -0.791137
v 0.227134 0.666077 0.697652
v 0.250687 0.538963 -0.764257
v 0.261375 0.661995 0.710244
v 0.271612 0.397777 0.805215
v 0.397438 -0.659396 -0.251595
v 0.404545 -0.358907 -0.640377
v 0.592265 -0.219985 -0.595838
v 0.664425 -0.405287 0.514699
v 0.729660 -0.350324 0.503506
v 0.731295 -0.374979 -0.221779
v 0.741590 -0.247209 -0.378247
v 0.753696 -0.331352 0.463744
v 0.789837 0.527826 0.062578
v 0.826302 0.409263 0.062811
vn -0.488947 -0.779888 -0.390776
vn -0.976839 0.192673 0.093073
vn -0.479273 -0.813915 0.328389
vn -0.479273 -0.813915 0.328389
vn -0.976839 0.192673 0.093073
vn -0.805941 -0.141166 -0.574919
vn -0.976839 0.192673 0.093073
vn -0.976839 0.192673 0.093073
vn -0.805941 -0.141166 -0.574919
vn -0.488947 -0.779888 -0.390776
vn -0.976839 0.192673 0.093073
vn -0.767530 -0.178208 0.615743
vn -0.354616 0.349300 -0.867316
vn -0.976839 0.192673 0.093073
vn -0.354616 0.349300 -0.867316
vn -0.188507 0.846309 -0.498224
vn -0.188507 0.846309 -0.498224
vn -0.354616 0.349300 -0.867316
vn -0.188507 0.846309 -0.498224
vn -0.279632 0.944755 0.171010
vn -0.279632 0.944755 0.171010
vn -0.767530 -0.178208 0.615743
vn -0.294681 0.313103 0.902845
vn -0.767530 -0.178208 0.615743
vn -0.294681 0.313103 0.902845
vn -0.189956 0.069598 -0.979323
vn 0.148103 0.985458 -0.083300
vn -0.488947 -0.779888 -0.390776
vn -0.189956 0.069598 -0.979323
vn -0.189956 0.069598 -0.979323
vn -0.479273 -0.813915 0.328389
vn 0.164970 -0.784224 0.598145
vn 0.164970 -0.784224 0.598145
vn 0.164970 -0.784224 0.598145
vn 0.314240 -0.183266 0.931487
vn -0.294681 0.313103 0.902845
vn 0.314240 -0.183266 0.931487
vn 0.190736 -0.778377 -0.598121
vn 0.190736 -0.778377 -0.598121
vn 0.190736 -0.778377 -0.598121
vn 0.287397 -0.082412 -0.954259
vn 0.287397 -0.082412 -0.954259
vn 0.287397 -0.082412 -0.954259
vn 0.190736 -0.778377 -0.598121
vn 0.646833 -0.762140 0.027366
vn 0.190736 -0.778377 -0.598121
vn 0.646833 -0.762140 0.027366
vn 0.646833 -0.762140 0.027366
vn 0.287397 -0.082412 -0.954259
vn 0.148103 0.985458 -0.083300
vn 0.148103 0.985458 -0.083300
vn 0.148103 0.985458 -0.083300
vn -0.294681 0.313103 0.902845
vn 0.287397 -0.082412 -0.954259
vn 0.812810 0.248951 -0.526652
vn 0.812810 0.248951 -0.526652
vn 0.775940 0.239785 0.583455
vn 0.775940 0.239785 0.583455
vn 0.314240 -0.183266 0.931487
vn 0.775940 0.239785 0.583455
vn 0.591398 -0.643217 -0.486333
vn 0.591398 -0.643217 -0.486333
vn 0.591398 -0.643217 -0.486333
vn 0.646833 -0.762140 0.027366
vn 0.993480 -0.111141 -0.025390
vn 0.812810 0.248951 -0.526652
vn 0.993480 -0.111141 -0.025390
vn 0.775940 0.239785 0.583455
s off
f 1//1 2//1 17//1
f 1//2 3//2 2//2
f 1//3 12//3 3//3
f 1//4 17//4 12//4
f 2//5 3//5 8//5
f 2//6 4//6 9//6
f 2//7 6//7 4//7
f 2//8 8//8 6//8
f 2//9 9//9 11//9
f 2//10 11//10 17//10
f 3//11 7//11 8//11
f 3//12 12//12 7//12
f 4//13 5//13 20//13
f 4//14 6//14 5//14
f 4//15 20//15 9//15
f 5//16 6//16 10//16
f 5//17 10//17 22//17
f 5//18 21//18 20//18
f 5//19 22//19 21//19
f 6//20 8//20 23//20
f 6//21 23//21 10//21
f 7//22 12//22 14//22
f 7//23 13//23 23//23
f 7//24 14//24 13//24
f 7//25 23//25 8//25
f 9//26 20//26 11//26
f 10//27 23//27 22//27
f 11//28 15//28 17//28
f 11//29 16//29 15//29
f 11//30 20//30 16//30
f 12//31 17//31 18//31
f 12//32 18//32 19//32
f 12//33 19//33 30//33
f 12//34 30//34 14//34
f 13//35 14//35 30//35
f 13//36 26//36 23//36
f 13//37 30//37 26//37
f 15//38 16//38 28//38
f 15//39 19//39 17//39
f 15//40 28//40 19//40
f 16//41 20//41 22//41
f 16//42 22//42 24//42
f 16//43 24//43 28//43
f 17//44 19//44 18//44
f 19//45 27//45 32//45
f 19//46 28//46 27//46
f 19//47 31//47 30//47
f 19//48 32//48 31//48
f 20//49 21//49 22//49
f 22//50 23//50 35//50
f 22//51 35//51 24//51
f 23//52 25//52 35//52
f 23//53 26//53 25//53
f 24//54 29//54 28//54
f 24//55 33//55 29//55
f 24//56 35//56 33//56
f 25//57 26//57 34//57
f 25//58 34//58 35//58
f 26//59 30//59 31//59
f 26//60 31//60 34//60
f 27//61 28//61 29//61
f 27//62 29//62 33//62
f 27//63 33//63 32//63
f 31//64 32//64 34//64
f 32//65 33//65 34//65
f 33//66 35//66 36//66
f 33//67 36//67 34//67
f 34//68 36//68 35//68
