# Blender v2.92.0 OBJ File: ''
# www.blender.org
mtllib unit_uv_sphere.mtl
o Sphere
v 0.866025 0.000000 0.500000
v 0.866025 0.000000 -0.500000
v -0.433013 -0.750000 0.500000
v -0.433013 -0.750000 -0.500000
v -0.000000 0.000000 -1.000000
v -0.000000 0.000000 1.000000
v -0.433013 0.750000 0.500000
v -0.433013 0.750000 -0.500000
vt 0.500000 0.000000
vt 0.666667 0.333333
vt 0.333333 0.333333
vt 0.666667 0.666667
vt 0.500000 1.000000
vt 0.333333 0.666667
vt 0.166667 0.000000
vt 0.000000 0.333333
vt 0.166667 1.000000
vt 0.000000 0.666667
vt 0.833333 0.000000
vt 1.000000 0.333333
vt 1.000000 0.666667
vt 0.833333 1.000000
vn 0.3780 -0.6547 -0.6547
vn 0.5000 -0.8660 0.0000
vn 0.3780 -0.6547 0.6547
vn -0.7559 0.0000 -0.6547
vn -1.0000 0.0000 -0.0000
vn -0.7559 0.0000 0.6547
vn 0.3780 0.6547 -0.6547
vn 0.5000 0.8660 0.0000
vn 0.3780 0.6547 0.6547
usemtl None
s off
f 5/1/1 2/2/1 4/3/1
f 1/4/2 4/3/2 2/2/2
f 1/4/3 6/5/3 3/6/3
f 5/7/4 4/3/4 8/8/4
f 3/6/5 8/8/5 4/3/5
f 3/6/6 6/9/6 7/10/6
f 5/11/7 8/12/7 2/2/7
f 7/13/8 2/2/8 8/12/8
f 7/13/9 6/14/9 1/4/9
f 1/4/2 3/6/2 4/3/2
f 3/6/5 7/10/5 8/8/5
f 7/13/8 1/4/8 2/2/8
