# Blender v2.92.0 OBJ File: ''
# www.blender.org
mtllib collapsed_cyl.mtl
o Cylinder
v 0.000000 1.000000 -1.000000
v -0.000000 0.096784 -0.065844
v 0.195090 0.980785 -1.000000
v 0.018882 0.094925 -0.065844
v 0.382683 0.923880 -1.000000
v 0.037038 0.089417 -0.065844
v 0.555570 0.831470 -1.000000
v 0.053770 0.080473 -0.065844
v 0.707107 0.707107 -1.000000
v 0.068437 0.068437 -0.065844
v 0.831470 0.555570 -1.000000
v 0.080473 0.053770 -0.065844
v 0.923880 0.382683 -1.000000
v 0.089417 0.037038 -0.065844
v 0.980785 0.195090 -1.000000
v 0.094924 0.018882 -0.065844
v 1.000000 0.000000 -1.000000
v 0.096784 -0.000000 -0.065844
v 0.980785 -0.195090 -1.000000
v 0.094924 -0.018882 -0.065844
v 0.923880 -0.382683 -1.000000
v 0.089417 -0.037038 -0.065844
v 0.831470 -0.555570 -1.000000
v 0.080473 -0.053770 -0.065844
v 0.707107 -0.707107 -1.000000
v 0.068437 -0.068437 -0.065844
v 0.555570 -0.831470 -1.000000
v 0.053770 -0.080473 -0.065844
v 0.382683 -0.923880 -1.000000
v 0.037038 -0.089417 -0.065844
v 0.195090 -0.980785 -1.000000
v 0.018882 -0.094925 -0.065844
v -0.000000 -1.000000 -1.000000
v -0.000000 -0.096784 -0.065844
v -0.195091 -0.980785 -1.000000
v -0.018882 -0.094924 -0.065844
v -0.382684 -0.923879 -1.000000
v -0.037038 -0.089417 -0.065844
v -0.555571 -0.831469 -1.000000
v -0.053771 -0.080473 -0.065844
v -0.707107 -0.707106 -1.000000
v -0.068437 -0.068437 -0.065844
v -0.831470 -0.555570 -1.000000
v -0.080473 -0.053770 -0.065844
v -0.923880 -0.382683 -1.000000
v -0.089417 -0.037038 -0.065844
v -0.980785 -0.195089 -1.000000
v -0.094925 -0.018882 -0.065844
v -1.000000 0.000001 -1.000000
v -0.096784 0.000000 -0.065844
v -0.980785 0.195091 -1.000000
v -0.094924 0.018882 -0.065844
v -0.923879 0.382684 -1.000000
v -0.089417 0.037038 -0.065844
v -0.831469 0.555571 -1.000000
v -0.080473 0.053771 -0.065844
v -0.707106 0.707108 -1.000000
v -0.068437 0.068437 -0.065844
v -0.555569 0.831470 -1.000000
v -0.053770 0.080473 -0.065844
v -0.382682 0.923880 -1.000000
v -0.037038 0.089417 -0.065844
v -0.195089 0.980786 -1.000000
v -0.018881 0.094925 -0.065844
v 0.195090 0.980785 1.000000
v 0.000000 1.000000 1.000000
v 0.382683 0.923880 1.000000
v 0.555570 0.831470 1.000000
v 0.707107 0.707107 1.000000
v 0.831470 0.555570 1.000000
v 0.923880 0.382683 1.000000
v 0.980785 0.195090 1.000000
v 1.000000 0.000000 1.000000
v 0.980785 -0.195090 1.000000
v 0.923880 -0.382683 1.000000
v 0.831470 -0.555570 1.000000
v 0.707107 -0.707107 1.000000
v 0.555570 -0.831470 1.000000
v 0.382683 -0.923880 1.000000
v 0.195090 -0.980785 1.000000
v -0.000000 -1.000000 1.000000
v -0.195091 -0.980785 1.000000
v -0.382684 -0.923879 1.000000
v -0.555571 -0.831469 1.000000
v -0.707107 -0.707106 1.000000
v -0.831470 -0.555570 1.000000
v -0.923880 -0.382683 1.000000
v -0.980785 -0.195089 1.000000
v -1.000000 0.000001 1.000000
v -0.980785 0.195091 1.000000
v -0.923879 0.382684 1.000000
v -0.831469 0.555571 1.000000
v -0.707106 0.707108 1.000000
v -0.555569 0.831470 1.000000
v -0.382682 0.923880 1.000000
v -0.195089 0.980786 1.000000
vt 1.000000 1.000000
vt 0.968750 0.500000
vt 1.000000 0.500000
vt 0.968750 1.000000
vt 0.937500 0.500000
vt 0.937500 1.000000
vt 0.906250 0.500000
vt 0.906250 1.000000
vt 0.875000 0.500000
vt 0.875000 1.000000
vt 0.843750 0.500000
vt 0.843750 1.000000
vt 0.812500 0.500000
vt 0.812500 1.000000
vt 0.781250 0.500000
vt 0.781250 1.000000
vt 0.750000 0.500000
vt 0.750000 1.000000
vt 0.718750 0.500000
vt 0.718750 1.000000
vt 0.687500 0.500000
vt 0.687500 1.000000
vt 0.656250 0.500000
vt 0.656250 1.000000
vt 0.625000 0.500000
vt 0.625000 1.000000
vt 0.593750 0.500000
vt 0.593750 1.000000
vt 0.562500 0.500000
vt 0.562500 1.000000
vt 0.531250 0.500000
vt 0.531250 1.000000
vt 0.500000 0.500000
vt 0.500000 1.000000
vt 0.468750 0.500000
vt 0.468750 1.000000
vt 0.437500 0.500000
vt 0.437500 1.000000
vt 0.406250 0.500000
vt 0.406250 1.000000
vt 0.375000 0.500000
vt 0.375000 1.000000
vt 0.343750 0.500000
vt 0.343750 1.000000
vt 0.312500 0.500000
vt 0.312500 1.000000
vt 0.281250 0.500000
vt 0.281250 1.000000
vt 0.250000 0.500000
vt 0.250000 1.000000
vt 0.218750 0.500000
vt 0.218750 1.000000
vt 0.187500 0.500000
vt 0.187500 1.000000
vt 0.156250 0.500000
vt 0.156250 1.000000
vt 0.125000 0.500000
vt 0.125000 1.000000
vt 0.093750 0.500000
vt 0.093750 1.000000
vt 0.062500 0.500000
vt 0.241111 0.228540
vt 0.271460 0.241111
vt 0.258889 0.271460
vt 0.062500 1.000000
vt 0.031250 0.500000
vt 0.031250 1.000000
vt 0.000000 0.500000
vt 0.985388 0.296822
vt 0.796822 0.014612
vt 0.514611 0.203179
vt 0.254532 0.272782
vt 0.250000 0.490000
vt 0.250000 0.273228
vt 0.296822 0.485388
vt 0.383337 0.449553
vt 0.341844 0.471731
vt 0.266425 0.266425
vt 0.262905 0.269314
vt 0.269314 0.262905
vt 0.419706 0.419706
vt 0.471731 0.341844
vt 0.449553 0.383337
vt 0.272782 0.254532
vt 0.271460 0.258889
vt 0.273228 0.250000
vt 0.485388 0.296822
vt 0.272782 0.245468
vt 0.490000 0.250000
vt 0.471731 0.158156
vt 0.485388 0.203178
vt 0.269314 0.237095
vt 0.419706 0.080294
vt 0.449553 0.116663
vt 0.266425 0.233575
vt 0.383337 0.050447
vt 0.258889 0.228540
vt 0.262905 0.230686
vt 0.254532 0.227218
vt 0.341844 0.028269
vt 0.250000 0.226772
vt 0.296822 0.014612
vt 0.245468 0.227218
vt 0.250000 0.010000
vt 0.158156 0.028269
vt 0.203178 0.014612
vt 0.237095 0.230686
vt 0.233575 0.233575
vt 0.116663 0.050447
vt 0.230686 0.237095
vt 0.080294 0.080294
vt 0.028269 0.158156
vt 0.050447 0.116663
vt 0.227218 0.245468
vt 0.228540 0.241111
vt 0.226772 0.250000
vt 0.014611 0.203179
vt 0.014612 0.296822
vt 0.010000 0.250000
vt 0.227218 0.254532
vt 0.028269 0.341844
vt 0.230686 0.262905
vt 0.228540 0.258889
vt 0.233575 0.266425
vt 0.050447 0.383337
vt 0.237095 0.269314
vt 0.080295 0.419706
vt 0.158156 0.471731
vt 0.116663 0.449553
vt 0.245469 0.272782
vt 0.241111 0.271460
vt 0.203179 0.485389
vt 0.000000 1.000000
vt 0.703179 0.485389
vt 0.750000 0.490000
vt 0.796822 0.485388
vt 0.841844 0.471731
vt 0.883337 0.449553
vt 0.919706 0.419706
vt 0.949553 0.383337
vt 0.971731 0.341844
vt 0.990000 0.250000
vt 0.985388 0.203178
vt 0.971731 0.158156
vt 0.949553 0.116663
vt 0.919706 0.080294
vt 0.883337 0.050447
vt 0.841844 0.028269
vt 0.750000 0.010000
vt 0.703178 0.014612
vt 0.658156 0.028269
vt 0.616663 0.050447
vt 0.580294 0.080294
vt 0.550447 0.116663
vt 0.528269 0.158156
vt 0.510000 0.250000
vt 0.514612 0.296822
vt 0.528269 0.341844
vt 0.550447 0.383337
vt 0.580295 0.419706
vt 0.616663 0.449553
vt 0.658156 0.471731
vn 0.0980 0.9952 0.0000
vn 0.2903 0.9569 0.0000
vn 0.4714 0.8819 0.0000
vn 0.6344 0.7730 0.0000
vn 0.7730 0.6344 0.0000
vn 0.8819 0.4714 0.0000
vn 0.9569 0.2903 0.0000
vn 0.9952 0.0980 0.0000
vn 0.9952 -0.0980 0.0000
vn 0.9569 -0.2903 0.0000
vn 0.8819 -0.4714 0.0000
vn 0.7730 -0.6344 0.0000
vn 0.6344 -0.7730 0.0000
vn 0.4714 -0.8819 0.0000
vn 0.2903 -0.9569 0.0000
vn 0.0980 -0.9952 0.0000
vn -0.0980 -0.9952 0.0000
vn -0.2903 -0.9569 0.0000
vn -0.4714 -0.8819 0.0000
vn -0.6344 -0.7730 0.0000
vn -0.7730 -0.6344 0.0000
vn -0.8819 -0.4714 0.0000
vn -0.9569 -0.2903 0.0000
vn -0.9952 -0.0980 0.0000
vn -0.9952 0.0980 0.0000
vn -0.9569 0.2903 0.0000
vn -0.8819 0.4714 0.0000
vn -0.7730 0.6344 0.0000
vn -0.6344 0.7730 0.0000
vn -0.4714 0.8819 0.0000
vn 0.0000 -0.0000 1.0000
vn -0.2903 0.9569 0.0000
vn -0.0980 0.9952 0.0000
vn 0.0000 0.0000 -1.0000
vn -0.0749 -0.7608 0.6447
vn -0.2219 -0.7315 0.6447
vn -0.3604 -0.6742 0.6447
vn -0.4850 -0.5909 0.6447
vn -0.5909 -0.4850 0.6447
vn -0.6742 -0.3604 0.6447
vn -0.7315 -0.2219 0.6447
vn -0.7608 -0.0749 0.6447
vn -0.7608 0.0749 0.6447
vn -0.7315 0.2219 0.6447
vn -0.6742 0.3604 0.6447
vn -0.5909 0.4850 0.6447
vn -0.4850 0.5909 0.6447
vn -0.3604 0.6742 0.6447
vn -0.2219 0.7315 0.6447
vn -0.0749 0.7608 0.6447
vn 0.0749 0.7608 0.6447
vn 0.2219 0.7315 0.6447
vn 0.3604 0.6742 0.6447
vn 0.4850 0.5909 0.6447
vn 0.5909 0.4850 0.6447
vn 0.6742 0.3604 0.6447
vn 0.7315 0.2219 0.6447
vn 0.7608 0.0749 0.6447
vn 0.7608 -0.0749 0.6447
vn 0.7315 -0.2219 0.6447
vn 0.6742 -0.3604 0.6447
vn 0.5909 -0.4850 0.6447
vn 0.4850 -0.5909 0.6447
vn 0.3604 -0.6742 0.6447
vn 0.2219 -0.7315 0.6447
vn 0.0749 -0.7608 0.6447
vn 0.6742 0.3603 0.6447
usemtl None
s off
f 66/1/1 3/2/1 1/3/1
f 65/4/2 5/5/2 3/2/2
f 67/6/3 7/7/3 5/5/3
f 68/8/4 9/9/4 7/7/4
f 69/10/5 11/11/5 9/9/5
f 70/12/6 13/13/6 11/11/6
f 71/14/7 15/15/7 13/13/7
f 72/16/8 17/17/8 15/15/8
f 73/18/9 19/19/9 17/17/9
f 74/20/10 21/21/10 19/19/10
f 75/22/11 23/23/11 21/21/11
f 76/24/12 25/25/12 23/23/12
f 77/26/13 27/27/13 25/25/13
f 78/28/14 29/29/14 27/27/14
f 79/30/15 31/31/15 29/29/15
f 80/32/16 33/33/16 31/31/16
f 81/34/17 35/35/17 33/33/17
f 82/36/18 37/37/18 35/35/18
f 83/38/19 39/39/19 37/37/19
f 84/40/20 41/41/20 39/39/20
f 85/42/21 43/43/21 41/41/21
f 86/44/22 45/45/22 43/43/22
f 87/46/23 47/47/23 45/45/23
f 88/48/24 49/49/24 47/47/24
f 89/50/25 51/51/25 49/49/25
f 90/52/26 53/53/26 51/51/26
f 91/54/27 55/55/27 53/53/27
f 92/56/28 57/57/28 55/55/28
f 93/58/29 59/59/29 57/57/29
f 94/60/30 61/61/30 59/59/30
f 38/62/31 22/63/31 6/64/31
f 95/65/32 63/66/32 61/61/32
f 96/67/33 1/68/33 63/66/33
f 15/69/34 31/70/34 47/71/34
f 4/72/35 66/73/35 2/74/35
f 6/64/36 65/75/36 4/72/36
f 6/64/37 68/76/37 67/77/37
f 10/78/38 68/76/38 8/79/38
f 12/80/39 69/81/39 10/78/39
f 12/80/40 71/82/40 70/83/40
f 16/84/41 71/82/41 14/85/41
f 18/86/42 72/87/42 16/84/42
f 20/88/43 73/89/43 18/86/43
f 20/88/44 75/90/44 74/91/44
f 24/92/45 75/90/45 22/63/45
f 24/92/46 77/93/46 76/94/46
f 26/95/47 78/96/47 77/93/47
f 30/97/48 78/96/48 28/98/48
f 32/99/49 79/100/49 30/97/49
f 34/101/50 80/102/50 32/99/50
f 36/103/51 81/104/51 34/101/51
f 36/103/52 83/105/52 82/106/52
f 40/107/53 83/105/53 38/62/53
f 42/108/54 84/109/54 40/107/54
f 44/110/55 85/111/55 42/108/55
f 44/110/56 87/112/56 86/113/56
f 48/114/57 87/112/57 46/115/57
f 50/116/58 88/117/58 48/114/58
f 50/116/59 90/118/59 89/119/59
f 52/120/60 91/121/60 90/118/60
f 56/122/61 91/121/61 54/123/61
f 58/124/62 92/125/62 56/122/62
f 60/126/63 93/127/63 58/124/63
f 60/126/64 95/128/64 94/129/64
f 64/130/65 95/128/65 62/131/65
f 64/130/66 66/73/66 96/132/66
f 66/1/1 65/4/1 3/2/1
f 65/4/2 67/6/2 5/5/2
f 67/6/3 68/8/3 7/7/3
f 68/8/4 69/10/4 9/9/4
f 69/10/5 70/12/5 11/11/5
f 70/12/6 71/14/6 13/13/6
f 71/14/7 72/16/7 15/15/7
f 72/16/8 73/18/8 17/17/8
f 73/18/9 74/20/9 19/19/9
f 74/20/10 75/22/10 21/21/10
f 75/22/11 76/24/11 23/23/11
f 76/24/12 77/26/12 25/25/12
f 77/26/13 78/28/13 27/27/13
f 78/28/14 79/30/14 29/29/14
f 79/30/15 80/32/15 31/31/15
f 80/32/16 81/34/16 33/33/16
f 81/34/17 82/36/17 35/35/17
f 82/36/18 83/38/18 37/37/18
f 83/38/19 84/40/19 39/39/19
f 84/40/20 85/42/20 41/41/20
f 85/42/21 86/44/21 43/43/21
f 86/44/22 87/46/22 45/45/22
f 87/46/23 88/48/23 47/47/23
f 88/48/24 89/50/24 49/49/24
f 89/50/25 90/52/25 51/51/25
f 90/52/26 91/54/26 53/53/26
f 91/54/27 92/56/27 55/55/27
f 92/56/28 93/58/28 57/57/28
f 93/58/29 94/60/29 59/59/29
f 94/60/30 95/65/30 61/61/30
f 6/64/31 4/72/31 62/131/31
f 4/72/31 2/74/31 62/131/31
f 2/74/31 64/130/31 62/131/31
f 62/131/31 60/126/31 58/124/31
f 58/124/31 56/122/31 54/123/31
f 54/123/31 52/120/31 46/115/31
f 52/120/31 50/116/31 46/115/31
f 50/116/31 48/114/31 46/115/31
f 46/115/31 44/110/31 42/108/31
f 42/108/31 40/107/31 38/62/31
f 38/62/31 36/103/31 34/101/31
f 34/101/31 32/99/31 30/97/31
f 30/97/31 28/98/31 26/95/31
f 26/95/31 24/92/31 30/97/31
f 24/92/31 22/63/31 30/97/31
f 22/63/31 20/88/31 18/86/31
f 18/86/31 16/84/31 22/63/31
f 16/84/31 14/85/31 22/63/31
f 14/85/31 12/80/31 10/78/31
f 10/78/31 8/79/31 6/64/31
f 62/131/31 58/124/31 54/123/31
f 46/115/31 42/108/31 38/62/31
f 38/62/31 34/101/31 30/97/31
f 14/85/31 10/78/31 22/63/31
f 10/78/31 6/64/31 22/63/31
f 6/64/31 62/131/31 38/62/31
f 62/131/31 54/123/31 38/62/31
f 54/123/31 46/115/31 38/62/31
f 38/62/31 30/97/31 22/63/31
f 95/65/32 96/67/32 63/66/32
f 96/67/33 66/133/33 1/68/33
f 63/134/34 1/135/34 3/136/34
f 3/136/34 5/137/34 7/138/34
f 7/138/34 9/139/34 11/140/34
f 11/140/34 13/141/34 7/138/34
f 13/141/34 15/69/34 7/138/34
f 15/69/34 17/142/34 19/143/34
f 19/143/34 21/144/34 15/69/34
f 21/144/34 23/145/34 15/69/34
f 23/145/34 25/146/34 31/70/34
f 25/146/34 27/147/34 31/70/34
f 27/147/34 29/148/34 31/70/34
f 31/70/34 33/149/34 35/150/34
f 35/150/34 37/151/34 39/152/34
f 39/152/34 41/153/34 43/154/34
f 43/154/34 45/155/34 47/71/34
f 47/71/34 49/156/34 51/157/34
f 51/157/34 53/158/34 55/159/34
f 55/159/34 57/160/34 63/134/34
f 57/160/34 59/161/34 63/134/34
f 59/161/34 61/162/34 63/134/34
f 63/134/34 3/136/34 7/138/34
f 31/70/34 35/150/34 47/71/34
f 35/150/34 39/152/34 47/71/34
f 39/152/34 43/154/34 47/71/34
f 47/71/34 51/157/34 63/134/34
f 51/157/34 55/159/34 63/134/34
f 63/134/34 7/138/34 15/69/34
f 15/69/34 23/145/34 31/70/34
f 63/134/34 15/69/34 47/71/34
f 4/72/35 65/75/35 66/73/35
f 6/64/36 67/77/36 65/75/36
f 6/64/37 8/79/37 68/76/37
f 10/78/38 69/81/38 68/76/38
f 12/80/39 70/83/39 69/81/39
f 12/80/40 14/85/40 71/82/40
f 16/84/41 72/87/41 71/82/41
f 18/86/42 73/89/42 72/87/42
f 20/88/43 74/91/43 73/89/43
f 20/88/44 22/63/44 75/90/44
f 24/92/45 76/94/45 75/90/45
f 24/92/46 26/95/46 77/93/46
f 26/95/47 28/98/47 78/96/47
f 30/97/48 79/100/48 78/96/48
f 32/99/49 80/102/49 79/100/49
f 34/101/50 81/104/50 80/102/50
f 36/103/51 82/106/51 81/104/51
f 36/103/52 38/62/52 83/105/52
f 40/107/53 84/109/53 83/105/53
f 42/108/54 85/111/54 84/109/54
f 44/110/55 86/113/55 85/111/55
f 44/110/67 46/115/67 87/112/67
f 48/114/57 88/117/57 87/112/57
f 50/116/58 89/119/58 88/117/58
f 50/116/59 52/120/59 90/118/59
f 52/120/60 54/123/60 91/121/60
f 56/122/61 92/125/61 91/121/61
f 58/124/62 93/127/62 92/125/62
f 60/126/63 94/129/63 93/127/63
f 60/126/64 62/131/64 95/128/64
f 64/130/65 96/132/65 95/128/65
f 64/130/66 2/74/66 66/73/66
