# Blender v2.92.0 OBJ File: ''
# www.blender.org
mtllib collapsed_house.mtl
o Cube
v -1.000000 2.358938 1.000000
v -1.000000 2.358938 -1.000000
v 1.000000 2.358938 1.000000
v 1.000000 2.358938 -1.000000
v -1.000000 -2.358938 1.000000
v -1.000000 -2.358938 -1.000000
v 1.000000 -2.358938 1.000000
v 1.000000 -2.358938 -1.000000
v 0.199853 -2.358938 0.000000
v 0.199853 2.358938 0.000000
v 1.000000 0.000000 1.000000
v 1.000000 0.000000 -1.000000
v 0.199853 0.000000 0.000000
vt 0.875000 0.500000
vt 0.875000 0.750000
vt 0.750000 0.750000
vt 0.625000 0.875000
vt 0.500000 1.000000
vt 0.500000 0.875000
vt 0.500000 0.000000
vt 0.625000 0.250000
vt 0.375000 0.250000
vt 0.375000 0.500000
vt 0.375000 0.750000
vt 0.250000 0.750000
vt 0.625000 0.500000
vt 0.625000 0.750000
vt 0.500000 0.750000
vt 0.375000 1.000000
vt 0.375000 0.875000
vt 0.625000 1.000000
vt 0.375000 0.000000
vt 0.625000 0.000000
vt 0.125000 0.750000
vt 0.125000 0.500000
vn 0.0000 0.0000 1.0000
vn 0.7808 0.0000 -0.6248
vn 0.0000 -1.0000 0.0000
vn 0.0000 0.0000 -1.0000
vn 0.0000 1.0000 0.0000
vn -1.0000 0.0000 0.0000
vn 0.7808 0.0000 0.6248
usemtl Material
s off
f 5/1/1 7/2/1 11/3/1
f 11/4/2 9/5/2 13/6/2
f 9/7/3 5/8/3 6/9/3
f 2/10/4 4/11/4 12/12/4
f 1/13/5 3/14/5 10/15/5
f 5/8/6 2/10/6 6/9/6
f 13/6/7 8/16/7 12/17/7
f 10/15/7 12/17/7 4/11/7
f 3/14/2 13/6/2 10/15/2
f 3/14/1 1/13/1 11/3/1
f 1/13/1 5/1/1 11/3/1
f 11/4/2 7/18/2 9/5/2
f 6/9/3 8/19/3 9/7/3
f 9/7/3 7/20/3 5/8/3
f 8/21/4 6/22/4 12/12/4
f 6/22/4 2/10/4 12/12/4
f 4/11/5 2/10/5 10/15/5
f 2/10/5 1/13/5 10/15/5
f 5/8/6 1/13/6 2/10/6
f 13/6/7 9/5/7 8/16/7
f 10/15/7 13/6/7 12/17/7
f 3/14/2 11/4/2 13/6/2
