# Blender v2.92.0 OBJ File: ''
# www.blender.org
mtllib collapsed_cube.mtl
o Cube
v 1.000000 1.000000 -1.000000
v 1.000000 -1.000000 -1.000000
v 1.000000 1.000000 1.000000
v 1.000000 -1.000000 1.000000
v -1.000000 1.000000 -1.000000
v -1.000000 -1.000000 -1.000000
v -1.000000 1.000000 1.000000
v -1.000000 -1.000000 1.000000
v 0.000000 -0.104223 0.000000
vt 0.625000 0.000000
vt 0.625000 0.750000
vt 0.000000 0.000000
vt 0.375000 1.000000
vt 0.375000 0.750000
vt 0.375000 0.250000
vt 0.375000 0.000000
vt 0.375000 0.500000
vt 0.125000 0.750000
vt 0.125000 0.500000
vt 0.625000 0.500000
vt 0.625000 0.250000
vt 0.625000 1.000000
vn 0.0000 0.6713 -0.7412
vn 0.0000 0.0000 1.0000
vn -1.0000 0.0000 0.0000
vn 0.0000 -1.0000 0.0000
vn 1.0000 0.0000 0.0000
vn 0.0000 0.0000 -1.0000
vn -0.7412 0.6713 0.0000
vn 0.0000 0.6713 0.7412
vn 0.7412 0.6713 0.0000
usemtl Material
s off
f 7/1/1 3/2/1 9/3/1
f 3/2/2 8/4/2 4/5/2
f 7/1/3 6/6/3 8/7/3
f 2/8/4 8/9/4 6/10/4
f 1/11/5 4/5/5 2/8/5
f 5/12/6 2/8/6 6/6/6
f 3/2/7 1/11/7 9/3/7
f 1/11/8 5/12/8 9/3/8
f 9/3/9 5/12/9 7/1/9
f 3/2/2 7/13/2 8/4/2
f 7/1/3 5/12/3 6/6/3
f 2/8/4 4/5/4 8/9/4
f 1/11/5 3/2/5 4/5/5
f 5/12/6 1/11/6 2/8/6
