# Blender v2.92.0 OBJ File: ''
# www.blender.org
mtllib corner_collapsed_cube.mtl
o Cube_Cube.002
v 1.000000 1.000000 -1.000000
v 1.000000 1.000000 1.000000
v 1.000000 -1.000000 -1.000000
v 1.000000 -1.000000 1.000000
v -1.000000 1.000000 -1.000000
v -0.078777 0.084937 0.024564
v -1.000000 -1.000000 -1.000000
v -1.000000 -1.000000 1.000000
v 1.000000 1.000000 0.000000
v 1.000000 0.000000 1.000000
v 0.000000 -1.000000 1.000000
v -1.000000 -1.000000 0.000000
v -1.000000 0.000000 -1.000000
v -1.000000 0.000000 1.000000
v -1.000000 1.000000 0.000000
v 0.000000 1.000000 -1.000000
v 0.000000 1.000000 1.000000
v 0.000000 0.000000 1.000000
v 0.000000 1.000000 0.000000
v -1.000000 0.000000 0.000000
vt 0.500000 0.000000
vt 0.625000 0.000000
vt 0.625000 0.125000
vt 0.500000 0.500000
vt 0.625000 0.375000
vt 0.625000 0.500000
vt 0.500000 0.625000
vt 0.625000 0.750000
vt 0.500000 0.750000
vt 0.625000 0.875000
vt 0.500000 1.000000
vt 0.500000 0.875000
vt 0.250000 0.750000
vt 0.375000 0.625000
vt 0.375000 0.750000
vt 0.875000 0.625000
vt 0.750000 0.750000
vt 0.750000 0.625000
vt 0.625000 0.625000
vt 0.750000 0.500000
vt 0.875000 0.500000
vt 0.125000 0.500000
vt 0.375000 1.000000
vt 0.375000 0.875000
vt 0.375000 0.500000
vt 0.375000 0.250000
vt 0.625000 0.250000
vt 0.625000 1.000000
vt 0.875000 0.750000
vt 0.125000 0.750000
vt 0.375000 0.000000
vn 1.0000 0.0000 0.0000
vn 0.0000 -1.0000 0.0000
vn -0.0267 0.0000 0.9996
vn 0.0000 1.0000 0.0000
vn 0.0000 0.0000 -1.0000
vn 0.0000 0.0000 1.0000
vn 0.0000 0.9962 0.0867
vn 0.0000 0.0268 0.9996
vn -1.0000 0.0000 0.0000
vn -0.9963 0.0858 0.0000
vn -0.0918 0.9958 0.0000
vn -0.9968 0.0000 0.0805
usemtl None
s off
f 9/1/1 2/2/1 10/3/1
f 12/4/2 11/5/2 8/6/2
f 20/7/3 6/8/3 15/9/3
f 17/10/4 9/11/4 19/12/4
f 16/13/5 13/14/5 5/15/5
f 10/16/6 17/17/6 18/18/6
f 18/18/7 6/8/7 14/19/7
f 11/20/6 14/19/6 8/6/6
f 4/21/6 18/18/6 11/20/6
f 16/13/5 3/22/5 13/14/5
f 19/12/4 1/23/4 16/24/4
f 15/9/4 16/24/4 5/15/4
f 6/8/8 19/12/8 15/9/8
f 20/7/9 5/15/9 13/14/9
f 12/4/9 13/14/9 7/25/9
f 8/6/9 20/7/9 12/4/9
f 12/4/2 3/26/2 11/5/2
f 10/3/1 4/27/1 3/26/1
f 6/8/10 17/10/10 19/12/10
f 20/7/11 14/19/11 6/8/11
f 18/18/12 17/17/12 6/8/12
f 17/10/4 2/28/4 9/11/4
f 10/16/6 2/29/6 17/17/6
f 11/20/6 18/18/6 14/19/6
f 4/21/6 10/16/6 18/18/6
f 1/30/5 3/22/5 16/13/5
f 3/22/5 7/25/5 13/14/5
f 19/12/4 9/11/4 1/23/4
f 15/9/4 19/12/4 16/24/4
f 20/7/9 15/9/9 5/15/9
f 12/4/9 20/7/9 13/14/9
f 8/6/9 14/19/9 20/7/9
f 7/25/2 3/26/2 12/4/2
f 3/26/2 4/27/2 11/5/2
f 3/26/1 1/31/1 9/1/1
f 9/1/1 10/3/1 3/26/1
