# Blender v3.1.2 OBJ File: ''
# www.blender.org
mtllib double_collapsed_cube.mtl
o Cube.001
v -1.000000 1.000000 1.000000
v 1.000000 1.000000 1.000000
v 0.000000 0.226290 -0.000000
v -0.035402 -0.217744 0.035401
v 0.035402 -0.217744 0.035401
v -0.035402 -0.217744 -0.035402
v 0.035402 -0.217744 -0.035402
v 1.000000 1.000000 -1.000000
v -1.000000 1.000000 -1.000000
v -1.000000 -1.000000 -1.000000
v 1.000000 -1.000000 -1.000000
v -1.000000 -1.000000 1.000000
v 1.000000 -1.000000 1.000000
vt 0.625000 0.000000
vt 0.625000 0.750000
vt 0.000000 0.000000
vt 0.375000 1.000000
vt 0.375000 0.750000
vt 0.375000 0.250000
vt 0.375000 0.000000
vt 0.625000 0.500000
vt 0.375000 0.500000
vt 0.625000 0.250000
vt 0.625000 1.000000
vt 0.245575 0.620575
vt 0.254425 0.629425
vt 0.245575 0.629425
vt 0.254425 0.620575
vt 0.125000 0.750000
vt 0.125000 0.500000
vn 0.0000 0.7909 -0.6119
vn 0.0000 -0.0000 1.0000
vn -1.0000 -0.0000 0.0000
vn 1.0000 -0.0000 0.0000
vn 0.0000 0.0000 -1.0000
vn -0.6119 0.7909 0.0000
vn 0.0000 0.7909 0.6119
vn 0.6119 0.7909 0.0000
vn 0.0000 -1.0000 0.0000
vn 0.3518 -0.8675 0.3518
vn -0.3518 -0.8675 0.3518
vn -0.3518 -0.8675 -0.3518
vn 0.3518 -0.8675 -0.3518
usemtl Material.001
s 1
f 1/1/1 2/2/1 3/3/1
f 2/2/2 12/4/2 13/5/2
f 1/1/3 10/6/3 12/7/3
f 8/8/4 13/5/4 11/9/4
f 9/10/5 11/9/5 10/6/5
f 2/2/6 8/8/6 3/3/6
f 8/8/7 9/10/7 3/3/7
f 3/3/8 9/10/8 1/1/8
f 2/2/2 1/11/2 12/4/2
f 1/1/3 9/10/3 10/6/3
f 8/8/4 2/2/4 13/5/4
f 9/10/5 8/8/5 11/9/5
f 6/12/9 5/13/9 4/14/9
f 6/12/10 11/9/11 7/15/11
f 5/13/12 12/16/13 4/14/13
f 4/14/13 10/17/10 6/12/10
f 5/13/12 11/9/11 13/5/12
f 6/12/9 7/15/9 5/13/9
f 6/12/10 10/17/10 11/9/11
f 5/13/12 13/5/12 12/16/13
f 4/14/13 12/16/13 10/17/10
f 5/13/12 7/15/11 11/9/11
