# Blender v2.92.0 OBJ File: ''
# www.blender.org
mtllib honeycomb.mtl
o HoneyComb
v 0.196537 1.155924 -0.183223
v 0.456345 1.005924 -0.183223
v -0.461642 1.005924 -0.183223
v -0.201835 1.155924 -0.183223
v 0.655531 0.360924 -0.183223
v 0.915338 0.210924 -0.183223
v 0.655531 0.660924 -0.183223
v -0.262456 0.360924 -0.183223
v -0.002649 0.210924 -0.183223
v 0.257159 0.360924 -0.183223
v 0.257159 0.660924 -0.183223
v -0.002649 0.810924 -0.183223
v -0.262456 0.660924 -0.183223
v -0.920636 0.210924 -0.183223
v -0.660828 0.360924 -0.183223
v -0.660828 0.660924 -0.183223
v 1.114524 -0.434076 -0.183223
v 1.114524 -0.134076 -0.183223
v 0.196537 -0.434076 -0.183223
v 0.456345 -0.584076 -0.183223
v 0.716152 -0.434076 -0.183223
v 0.716152 -0.134076 -0.183223
v 0.456345 0.015924 -0.183223
v 0.196537 -0.134076 -0.183223
v -0.721450 -0.434076 -0.183223
v -0.461642 -0.584076 -0.183223
v -0.201835 -0.434076 -0.183223
v -0.201835 -0.134076 -0.183223
v -0.461642 0.015924 -0.183223
v -0.721450 -0.134076 -0.183223
v -1.119822 -0.434076 -0.183223
v -1.119822 -0.134076 -0.183223
v 0.915338 -0.779076 -0.183223
v 0.655531 -0.929076 -0.183223
v 0.257159 -0.929076 -0.183223
v -0.002649 -0.779076 -0.183223
v -0.262456 -0.929076 -0.183223
v -0.660828 -0.929076 -0.183223
v -0.920636 -0.779076 -0.183223
v 0.196537 1.155924 0.191944
v 0.456345 1.005924 0.191944
v -0.461642 1.005924 0.191944
v -0.201835 1.155924 0.191944
v 0.655531 0.360924 0.191944
v 0.915338 0.210924 0.191944
v 0.655531 0.660924 0.191944
v -0.262456 0.360924 0.191944
v -0.002649 0.210924 0.191944
v 0.257159 0.360924 0.191944
v 0.257159 0.660924 0.191944
v -0.002649 0.810924 0.191944
v -0.262456 0.660924 0.191944
v -0.920636 0.210924 0.191944
v -0.660828 0.360924 0.191944
v -0.660828 0.660924 0.191944
v 1.114524 -0.134076 0.191944
v 0.196537 -0.434076 0.191944
v 0.456345 -0.584076 0.191944
v 0.716152 -0.434076 0.191944
v 0.716152 -0.134076 0.191944
v 0.456345 0.015924 0.191944
v 0.196537 -0.134076 0.191944
v -0.721450 -0.434076 0.191944
v -0.461642 -0.584076 0.191944
v -0.201835 -0.434076 0.191944
v -0.201835 -0.134076 0.191944
v -0.461642 0.015924 0.191944
v -0.721450 -0.134076 0.191944
v -1.119822 -0.434076 0.191944
v -1.119822 -0.134076 0.191944
v 0.655531 -0.929076 0.191944
v 0.257159 -0.929076 0.191944
v -0.002649 -0.779076 0.191944
v -0.262456 -0.929076 0.191944
v -0.660828 -0.929076 0.191944
v 1.114524 -0.434076 0.191944
v -0.920636 -0.779076 0.191944
v 0.915338 -0.779076 0.191944
vn 0.0000 0.0000 -1.0000
vn 0.0000 0.0000 1.0000
vn -0.5000 -0.8660 0.0000
vn -0.5000 0.8660 0.0000
vn 0.8660 -0.5000 0.0000
vn 1.0000 0.0000 0.0000
vn -1.0000 0.0000 0.0000
vn 0.5000 -0.8660 0.0000
vn 0.5000 0.8660 0.0000
vn 0.0000 1.0000 0.0000
vn -0.8660 0.5000 0.0000
vn 0.8660 0.5000 0.0000
vn -0.8660 -0.5000 0.0000
vn 0.0000 -1.0000 0.0000
usemtl None
s off
f 4//1 13//1 3//1
f 4//1 1//1 12//1
f 35//1 20//1 34//1
f 36//1 20//1 35//1
f 9//1 23//1 24//1
f 10//1 5//1 23//1
f 11//1 5//1 10//1
f 11//1 2//1 7//1
f 12//1 2//1 11//1
f 20//1 33//1 34//1
f 21//1 17//1 33//1
f 22//1 17//1 21//1
f 22//1 6//1 18//1
f 23//1 6//1 22//1
f 26//1 36//1 37//1
f 27//1 19//1 36//1
f 28//1 19//1 27//1
f 28//1 9//1 24//1
f 29//1 9//1 28//1
f 14//1 29//1 30//1
f 15//1 8//1 29//1
f 16//1 8//1 15//1
f 16//1 3//1 13//1
f 31//1 25//1 39//1
f 32//1 25//1 31//1
f 32//1 14//1 30//1
f 38//1 26//1 37//1
f 39//1 26//1 38//1
f 52//2 43//2 42//2
f 43//2 51//2 40//2
f 72//2 71//2 58//2
f 58//2 73//2 72//2
f 48//2 61//2 49//2
f 49//2 61//2 44//2
f 44//2 50//2 49//2
f 50//2 46//2 41//2
f 41//2 51//2 50//2
f 58//2 78//2 59//2
f 59//2 78//2 76//2
f 76//2 60//2 59//2
f 60//2 56//2 45//2
f 45//2 61//2 60//2
f 64//2 73//2 65//2
f 65//2 73//2 57//2
f 57//2 66//2 65//2
f 66//2 62//2 48//2
f 48//2 67//2 66//2
f 53//2 67//2 54//2
f 54//2 67//2 47//2
f 47//2 55//2 54//2
f 55//2 52//2 42//2
f 69//2 77//2 63//2
f 63//2 70//2 69//2
f 70//2 68//2 53//2
f 75//2 74//2 64//2
f 64//2 77//2 75//2
f 22//3 61//3 23//3
f 20//4 59//4 21//4
f 17//5 78//5 33//5
f 35//3 73//3 36//3
f 7//6 44//6 5//6
f 21//7 60//7 22//7
f 36//8 74//8 37//8
f 13//6 47//6 8//6
f 38//3 77//3 39//3
f 8//9 48//9 9//9
f 33//8 71//8 34//8
f 9//4 49//4 10//4
f 4//10 40//10 1//10
f 23//8 62//8 24//8
f 25//9 64//9 26//9
f 29//8 68//8 30//8
f 10//7 50//7 11//7
f 16//11 42//11 3//11
f 26//4 65//4 27//4
f 11//3 51//3 12//3
f 27//7 66//7 28//7
f 1//9 41//9 2//9
f 28//3 67//3 29//3
f 32//11 53//11 14//11
f 14//4 54//4 15//4
f 3//4 43//4 4//4
f 24//6 57//6 19//6
f 15//7 55//7 16//7
f 18//6 76//6 17//6
f 2//12 46//12 7//12
f 31//7 70//7 32//7
f 12//8 52//8 13//8
f 39//13 69//13 31//13
f 5//9 45//9 6//9
f 34//14 72//14 35//14
f 6//12 56//12 18//12
f 30//6 63//6 25//6
f 19//9 58//9 20//9
f 37//14 75//14 38//14
f 4//1 12//1 13//1
f 36//1 19//1 20//1
f 9//1 10//1 23//1
f 11//1 7//1 5//1
f 12//1 1//1 2//1
f 20//1 21//1 33//1
f 22//1 18//1 17//1
f 23//1 5//1 6//1
f 26//1 27//1 36//1
f 28//1 24//1 19//1
f 29//1 8//1 9//1
f 14//1 15//1 29//1
f 16//1 13//1 8//1
f 32//1 30//1 25//1
f 39//1 25//1 26//1
f 52//2 51//2 43//2
f 58//2 57//2 73//2
f 48//2 62//2 61//2
f 44//2 46//2 50//2
f 41//2 40//2 51//2
f 58//2 71//2 78//2
f 76//2 56//2 60//2
f 45//2 44//2 61//2
f 64//2 74//2 73//2
f 57//2 62//2 66//2
f 48//2 47//2 67//2
f 53//2 68//2 67//2
f 47//2 52//2 55//2
f 63//2 68//2 70//2
f 64//2 63//2 77//2
f 22//3 60//3 61//3
f 20//4 58//4 59//4
f 17//5 76//5 78//5
f 35//3 72//3 73//3
f 7//6 46//6 44//6
f 21//7 59//7 60//7
f 36//8 73//8 74//8
f 13//6 52//6 47//6
f 38//3 75//3 77//3
f 8//9 47//9 48//9
f 33//8 78//8 71//8
f 9//4 48//4 49//4
f 4//10 43//10 40//10
f 23//8 61//8 62//8
f 25//9 63//9 64//9
f 29//8 67//8 68//8
f 10//7 49//7 50//7
f 16//11 55//11 42//11
f 26//4 64//4 65//4
f 11//3 50//3 51//3
f 27//7 65//7 66//7
f 1//9 40//9 41//9
f 28//3 66//3 67//3
f 32//11 70//11 53//11
f 14//4 53//4 54//4
f 3//4 42//4 43//4
f 24//6 62//6 57//6
f 15//7 54//7 55//7
f 18//6 56//6 76//6
f 2//12 41//12 46//12
f 31//7 69//7 70//7
f 12//8 51//8 52//8
f 39//13 77//13 69//13
f 5//9 44//9 45//9
f 34//14 71//14 72//14
f 6//12 45//12 56//12
f 30//6 68//6 63//6
f 19//9 57//9 58//9
f 37//14 74//14 75//14
