# Blender v2.92.0 OBJ File: ''
# www.blender.org
mtllib collapsed_house.mtl
o Cube
v 2.000000 1.000000 -1.000000
v 2.000000 -1.000000 -1.000000
v 2.000000 1.000000 1.000000
v 2.000000 -1.000000 1.000000
v -2.000000 1.000000 -1.000000
v -2.000000 -1.000000 -1.000000
v -2.000000 1.000000 1.000000
v -2.000000 -1.000000 1.000000
v 2.000000 0.307742 0.000000
v -2.000000 0.307742 0.000000
vt 0.875000 0.625000
vt 0.625000 0.750000
vt 0.625000 0.625000
vt 0.375000 1.000000
vt 0.375000 0.750000
vt 0.625000 0.125000
vt 0.625000 0.250000
vt 0.375000 0.250000
vt 0.375000 0.500000
vt 0.125000 0.750000
vt 0.125000 0.500000
vt 0.625000 0.500000
vt 0.875000 0.500000
vt 0.875000 0.750000
vt 0.625000 1.000000
vt 0.375000 0.000000
vt 0.625000 0.000000
vn 0.0000 0.8222 -0.5692
vn 0.0000 0.0000 1.0000
vn -1.0000 0.0000 0.0000
vn 0.0000 -1.0000 0.0000
vn 1.0000 0.0000 0.0000
vn 0.0000 0.0000 -1.0000
vn 0.0000 0.8222 0.5692
usemtl Material
s off
f 10/1/1 3/2/1 9/3/1
f 3/2/2 8/4/2 4/5/2
f 10/6/3 5/7/3 6/8/3
f 2/9/4 8/10/4 6/11/4
f 9/3/5 3/2/5 4/5/5
f 5/7/6 2/9/6 6/8/6
f 9/3/7 1/12/7 5/13/7
f 10/1/1 7/14/1 3/2/1
f 9/3/7 5/13/7 10/1/7
f 3/2/2 7/15/2 8/4/2
f 6/8/3 8/16/3 10/6/3
f 8/16/3 7/17/3 10/6/3
f 2/9/4 4/5/4 8/10/4
f 4/5/5 2/9/5 9/3/5
f 2/9/5 1/12/5 9/3/5
f 5/7/6 1/12/6 2/9/6
