# Blender 4.2.0
# www.blender.org
mtllib irregular.mtl
o Cube
v 2.321261 1.825199 1.004118
v 0.817240 -1.000000 -0.423702
v 2.321261 0.174801 2.133803
v -0.121846 -0.130918 1.000000
v -2.321261 1.000000 -1.000000
v -0.817240 -1.000000 -1.576298
v -2.321261 1.000000 1.000000
v -2.121846 -0.130918 1.000000
vn -0.1006 0.5620 0.8210
vn -0.0000 -0.0000 1.0000
vn -0.8087 -0.5429 -0.2264
vn -0.0000 -0.9475 0.3196
vn 0.4665 -0.5841 0.6643
vn 0.4790 0.5560 -0.6793
vn -0.1750 0.9846 -0.0000
vn -0.2892 -0.5623 0.7747
vn -0.9848 -0.1737 -0.0000
vn -0.2618 -0.8909 0.3712
vn 0.4131 -0.5144 -0.7515
vn 0.3397 0.2739 -0.8998
vt 0.625000 0.500000
vt 0.875000 0.750000
vt 0.625000 0.750000
vt 0.375000 0.750000
vt 0.625000 1.000000
vt 0.375000 1.000000
vt 0.375000 0.000000
vt 0.625000 0.250000
vt 0.375000 0.250000
vt 0.125000 0.500000
vt 0.125000 0.750000
vt 0.375000 0.500000
vt 0.875000 0.500000
vt 0.625000 0.000000
s 0
usemtl Material
f 1/1/1 7/2/1 3/3/1
f 4/4/2 7/5/2 8/6/2
f 8/7/3 5/8/3 6/9/3
f 6/10/4 4/4/4 8/11/4
f 1/1/5 4/4/5 2/12/5
f 5/8/6 2/12/6 6/9/6
f 1/1/7 5/13/7 7/2/7
f 4/4/8 3/3/8 7/5/8
f 8/7/9 7/14/9 5/8/9
f 6/10/10 2/12/10 4/4/10
f 1/1/11 3/3/11 4/4/11
f 5/8/12 1/1/12 2/12/12
