# Blender v2.92.0 OBJ File: ''
# www.blender.org
mtllib split_cube.mtl
o Cube_Cube.002
v 1.000000 1.621637 -1.000000
v 1.000000 1.621637 1.000000
v 1.000000 -1.618926 -1.000000
v 1.000000 -1.618926 1.000000
v -1.000000 1.621637 -1.000000
v -1.000000 1.621637 1.000000
v -1.000000 -1.618926 -1.000000
v -1.000000 -1.618926 1.000000
v 1.000000 -0.618926 -1.000000
v 1.000000 -0.618926 1.000000
v -1.000000 -0.618926 -1.000000
v -1.000000 -0.618926 1.000000
v 1.000000 0.621731 -1.000000
v -1.000000 0.621731 1.000000
v 1.000000 0.621731 1.000000
v -1.000000 0.621731 -1.000000
vt 0.625000 0.125000
vt 0.375000 0.250000
vt 0.375000 0.125000
vt 0.625000 0.250000
vt 0.375000 0.500000
vt 0.625000 0.687500
vt 0.375000 0.750000
vt 0.375000 0.687500
vt 0.625000 0.750000
vt 0.375000 1.000000
vt 0.125000 0.750000
vt 0.125000 0.687500
vt 0.875000 0.687500
vt 0.875000 0.500000
vt 0.625000 0.625000
vt 0.625000 0.500000
vt 0.125000 0.625000
vt 0.125000 0.500000
vt 0.375000 0.625000
vt 0.625000 0.000000
vt 0.375000 0.062500
vt 0.375000 0.000000
vt 0.625000 1.000000
vt 0.875000 0.750000
vt 0.875000 0.625000
vt 0.625000 0.062500
vn 1.0000 0.0000 0.0000
vn 0.0000 -1.0000 0.0000
vn -1.0000 0.0000 0.0000
vn 0.0000 1.0000 0.0000
vn 0.0000 0.0000 -1.0000
vn 0.0000 0.0000 1.0000
usemtl None
s off
f 10/1/1 3/2/1 9/3/1
f 4/4/2 7/5/2 3/2/2
f 14/6/3 5/7/3 16/8/3
f 6/9/4 1/10/4 5/7/4
f 16/8/5 1/11/5 13/12/5
f 15/13/6 6/9/6 14/6/6
f 4/14/6 12/15/6 8/16/6
f 7/5/5 9/17/5 3/18/5
f 8/16/3 11/19/3 7/5/3
f 2/20/1 13/21/1 1/22/1
f 10/1/1 4/4/1 3/2/1
f 4/4/2 8/16/2 7/5/2
f 14/6/3 6/9/3 5/7/3
f 6/9/4 2/23/4 1/10/4
f 16/8/5 5/7/5 1/11/5
f 15/13/6 2/24/6 6/9/6
f 4/14/6 10/25/6 12/15/6
f 7/5/5 11/19/5 9/17/5
f 8/16/3 12/15/3 11/19/3
f 2/20/1 15/26/1 13/21/1
